<svg width="20" height="21" viewBox="0 0 20 21" fill="none" xmlns="http://www.w3.org/2000/svg">
<g clip-path="url(#clip0_2001_932)">
<path d="M11.1873 10.4598C11.1873 13.4651 8.74438 15.902 5.7294 15.902C5.01377 15.9029 4.30496 15.7629 3.64344 15.4899C2.98192 15.2169 2.38064 14.8163 1.87394 14.311C1.36724 13.8056 0.965035 13.2054 0.690295 12.5446C0.415554 11.8838 0.273657 11.1754 0.272705 10.4598C0.272705 7.45327 2.71564 5.01758 5.7294 5.01758C6.44514 5.01647 7.15408 5.15636 7.81574 5.42927C8.4774 5.70218 9.07882 6.10276 9.58565 6.60813C10.0925 7.1135 10.4948 7.71376 10.7696 8.37463C11.0444 9.0355 11.1864 9.74404 11.1873 10.4598ZM17.1737 10.4598C17.1737 13.2897 15.9523 15.5827 14.4454 15.5827C12.9385 15.5827 11.717 13.2885 11.717 10.4598C11.717 7.62983 12.9385 5.33686 14.4454 5.33686C15.9523 5.33686 17.1737 7.63104 17.1737 10.4598ZM19.6227 10.4598C19.6227 12.9946 19.1934 15.0494 18.6625 15.0494C18.1328 15.0494 17.7034 12.9934 17.7034 10.4598C17.7034 7.92492 18.1328 5.87019 18.6637 5.87019C19.1934 5.87019 19.6227 7.92492 19.6227 10.4598Z" fill="#F3F3F3"/>
</g>
<defs>
<clipPath id="clip0_2001_932">
<rect width="19.35" height="19.35" fill="white" transform="translate(0.272705 0.784668)"/>
</clipPath>
</defs>
</svg>
