<svg width="120" height="31" viewBox="0 0 120 31" fill="none" xmlns="http://www.w3.org/2000/svg">
<path d="M35.0519 20.952V9.37734H37.4203L40.8774 16.8832H40.9156L44.3726 9.37734H46.7601V20.952H44.5254V13.8363H44.449L41.0684 20.952H40.6864L37.3057 13.8363H37.2675V20.952H35.0519V20.952ZM55.2977 19.9859C54.4955 20.8033 53.5023 21.2121 52.2799 21.2121C51.0576 21.2121 50.0453 20.8033 49.2622 19.9859C48.46 19.1684 48.078 18.0351 48.078 16.5859C48.078 15.1554 48.4791 14.0221 49.3004 13.2046C50.1217 12.3871 51.1149 11.9598 52.299 11.9598C53.4832 11.9598 54.4764 12.3685 55.2977 13.2046C56.119 14.0221 56.5201 15.1554 56.5201 16.5859C56.4819 18.0351 56.0999 19.1684 55.2977 19.9859ZM50.7711 18.5739C51.134 19.0383 51.6306 19.2613 52.2608 19.2613C52.8911 19.2613 53.3877 19.0198 53.7506 18.5553C54.1135 18.0908 54.2854 17.422 54.2854 16.5674C54.2854 15.7127 54.0944 15.0439 53.7315 14.5794C53.3686 14.1149 52.872 13.8734 52.2417 13.8734C51.6115 13.8734 51.1149 14.0964 50.752 14.5608C50.3891 15.0253 50.1981 15.6942 50.1981 16.5674C50.2363 17.4591 50.4082 18.1094 50.7711 18.5739ZM60.0918 20.952L56.4819 12.2013H58.7739L61.0086 17.8307H61.0467L63.2814 12.2013H65.5352L61.9253 20.9705H60.0918V20.952ZM72.01 17.9422L73.5571 19.2613C72.6403 20.5618 71.3988 21.2121 69.8326 21.2121C68.5721 21.2121 67.5407 20.7848 66.7576 19.9487C65.9554 19.1127 65.5734 17.9794 65.5734 16.5859C65.5734 15.1925 65.9745 14.0592 66.7576 13.2232C67.5407 12.3871 68.5339 11.9598 69.7371 11.9598C70.9404 11.9598 71.9336 12.3871 72.6976 13.2232C73.4807 14.0592 73.8627 15.1925 73.8627 16.5859V17.2362H67.8081C67.8463 17.905 68.0373 18.4252 68.3811 18.7782C68.7249 19.1312 69.2024 19.317 69.7945 19.317C70.3101 19.317 70.7303 19.187 71.055 18.9455C71.3988 18.6853 71.7044 18.3509 72.01 17.9422ZM67.8081 15.6198H71.7235C71.6662 15.0625 71.4752 14.6166 71.1314 14.3007C70.7876 13.9849 70.3292 13.8363 69.7371 13.8363C69.2024 13.8363 68.744 14.0035 68.4002 14.3565C68.0564 14.6909 67.8463 15.1182 67.8081 15.6198ZM76.3648 20.952L74.3784 12.1827H76.5367L77.7209 18.0351H77.7782L79.7836 12.1827H81.7891L83.6418 18.0165H83.68L85.0361 12.1827H87.1562L84.9979 20.952H82.8205L80.7577 14.6537H80.7195L78.4849 20.952H76.3648ZM94.6433 19.9859C93.8411 20.8033 92.8479 21.2121 91.6255 21.2121C90.4031 21.2121 89.3908 20.8033 88.6077 19.9859C87.8056 19.1684 87.4236 18.0351 87.4236 16.5859C87.4236 15.1554 87.8247 14.0221 88.6459 13.2046C89.4672 12.3871 90.4604 11.9598 91.6446 11.9598C92.8288 11.9598 93.822 12.3685 94.6433 13.2046C95.4646 14.0221 95.8657 15.1554 95.8657 16.5859C95.8275 18.0351 95.4455 19.1684 94.6433 19.9859ZM90.1166 18.5739C90.4795 19.0383 90.9761 19.2613 91.6064 19.2613C92.2367 19.2613 92.7333 19.0198 93.0962 18.5553C93.4591 18.0908 93.631 17.422 93.631 16.5674C93.631 15.7127 93.44 15.0439 93.0771 14.5794C92.7142 14.1149 92.2176 13.8734 91.5873 13.8734C90.957 13.8734 90.4604 14.0964 90.0975 14.5608C89.7346 15.0253 89.5436 15.6942 89.5436 16.5674C89.5818 17.4591 89.7728 18.1094 90.1166 18.5739ZM97.1835 20.952V12.1827H99.2654V13.1117H99.3036C99.4755 12.7773 99.7238 12.5172 100.068 12.3128C100.392 12.1084 100.774 12.0155 101.156 12.0155C101.443 12.0155 101.71 12.0713 101.978 12.1827L101.634 14.2636C101.386 14.1707 101.156 14.1335 100.946 14.1335C99.9148 14.1335 99.3991 14.8024 99.3991 16.14V20.952H97.1835ZM111.279 18.0722L113.266 17.5706C113.418 18.7968 114.106 19.4099 115.29 19.4099C115.825 19.4099 116.264 19.317 116.589 19.1498C116.914 18.9826 117.066 18.7411 117.066 18.4252C117.066 18.1651 116.933 17.9794 116.684 17.8493C116.436 17.7192 115.92 17.552 115.118 17.3291C114.908 17.2734 114.736 17.2362 114.622 17.199C113.571 16.9204 112.807 16.5674 112.33 16.1772C111.833 15.787 111.604 15.2668 111.604 14.6166C111.604 13.892 111.909 13.2603 112.521 12.7401C113.132 12.2199 113.953 11.9412 115.004 11.9412C117.028 11.9412 118.289 12.7958 118.785 14.5237L116.952 15.0625C116.799 14.6352 116.57 14.3193 116.283 14.0778C115.997 13.8363 115.577 13.7062 115.023 13.7062C114.583 13.7062 114.259 13.7805 113.991 13.9477C113.743 14.1149 113.609 14.3007 113.609 14.5237C113.609 14.7652 113.762 14.951 114.068 15.0996C114.373 15.2297 115.118 15.4712 116.322 15.8056C117.372 16.0843 118.098 16.4373 118.48 16.846C118.862 17.2734 119.053 17.8121 119.053 18.481C119.053 19.187 118.747 19.8187 118.117 20.376C117.487 20.9334 116.57 21.2121 115.386 21.2121C114.144 21.2121 113.17 20.9148 112.502 20.3017C111.833 19.6886 111.413 18.9455 111.279 18.0722ZM107.708 16.3816L111.317 20.9705H108.567L105.396 16.8089V20.9705H103.162V8.89429H105.396V15.9171L108.567 12.2013H111.317L107.708 16.3816Z" fill="#100E0E"/>
<path d="M14.4063 14.0596H0.65448V0.682861L14.4063 14.0596ZM14.4063 0.682861V14.0782H28.1773L14.4063 0.682861Z" fill="#100E0E"/>
<path d="M0.65448 29.666V16.2706H14.4254L0.65448 29.666ZM28.1773 16.2892H14.4063V29.6846L28.1773 16.2892Z" fill="#100E0E"/>
<path d="M35.0519 24.2224H35.6249V29.0332H35.0519V24.2224Z" fill="#100E0E"/>
<path d="M36.7117 25.3929H37.2465V25.7273H37.2656C37.4948 25.4672 37.915 25.2815 38.316 25.2815C39.1946 25.2815 39.7294 25.8202 39.7294 26.6746V29.0336H39.1755V26.7303C39.1755 26.1359 38.8126 25.783 38.2396 25.783C37.6476 25.783 37.2465 26.1731 37.2465 26.7303V29.015H36.6926V25.3929H36.7117Z" fill="#100E0E"/>
<path d="M40.4206 27.7889L40.9554 27.6961C41.07 28.3647 41.3947 28.6434 42.0823 28.6434C42.598 28.6434 42.9036 28.439 42.9036 28.1233C42.9036 27.7704 42.6744 27.6218 41.8722 27.3803C40.9172 27.1202 40.5925 26.8416 40.5925 26.3401C40.5925 25.7271 41.1273 25.2999 41.8913 25.2999C42.6362 25.2999 43.1901 25.7271 43.3429 26.3773L42.8081 26.4887C42.6744 26.0243 42.3688 25.7829 41.8913 25.7829C41.4329 25.7829 41.1273 25.9872 41.1273 26.303C41.1273 26.563 41.3374 26.693 42.0441 26.8973C43.0755 27.1945 43.4575 27.5103 43.4575 28.0861C43.4575 28.7177 42.9036 29.1263 42.0632 29.1263C41.1273 29.1263 40.5161 28.6434 40.4206 27.7889Z" fill="#100E0E"/>
<path d="M44.8303 25.876V28.1979C44.8303 28.4393 44.9258 28.5322 45.2313 28.5322H45.5369V29.0337H45.174C44.4865 29.0337 44.2573 28.8108 44.2573 28.1979V25.876H43.6843V25.3931H44.2573V24.5758H44.8112V25.3931H45.7279V25.876H44.8303Z" fill="#100E0E"/>
<path d="M46.0734 28.1048C46.0734 27.4919 46.4554 27.1761 47.3913 26.9532C48.1171 26.786 48.3463 26.6374 48.3463 26.3402C48.3463 26.0059 48.0407 25.783 47.5823 25.783C47.0857 25.783 46.7419 26.0802 46.6464 26.5631L46.0925 26.4517C46.2262 25.7459 46.7992 25.2815 47.5823 25.2815C48.4227 25.2815 48.9384 25.7273 48.9384 26.4703V29.0336H48.4227V28.6435H48.4036C48.1935 28.9407 47.7924 29.1264 47.3149 29.1264C46.5509 29.1264 46.0734 28.7364 46.0734 28.1048ZM48.3845 27.7891V26.9718H48.3654C48.289 27.1575 48.0407 27.269 47.5441 27.399C46.8947 27.5662 46.6273 27.7519 46.6273 28.0677C46.6273 28.4392 46.8756 28.6249 47.3531 28.6249C47.9452 28.6249 48.3845 28.272 48.3845 27.7891Z" fill="#100E0E"/>
<path d="M49.8176 25.3929H50.3524V25.7273H50.3715C50.6007 25.4672 51.0209 25.2815 51.422 25.2815C52.3006 25.2815 52.8354 25.8202 52.8354 26.6746V29.0336H52.2815V26.7303C52.2815 26.1359 51.9186 25.783 51.3456 25.783C50.7535 25.783 50.3524 26.1731 50.3524 26.7303V29.015H49.7985V25.3929H49.8176Z" fill="#100E0E"/>
<path d="M54.4572 25.876V28.1979C54.4572 28.4393 54.5527 28.5322 54.8583 28.5322H55.1639V29.0337H54.801C54.1134 29.0337 53.8842 28.8108 53.8842 28.1979V25.876H53.3112V25.3931H53.8842V24.5758H54.4381V25.3931H55.3549V25.876H54.4572Z" fill="#100E0E"/>
<path d="M57.9709 24.0183H58.5248V25.7272H58.5439C58.754 25.4671 59.1742 25.2814 59.5753 25.2814C60.4348 25.2814 60.9887 25.8201 60.9887 26.6559V29.0149H60.4348V26.7302C60.4348 26.1358 60.0719 25.7829 59.4989 25.7829C58.9068 25.7829 58.5057 26.173 58.5057 26.7302V29.0149H57.9518V24.0183H57.9709Z" fill="#100E0E"/>
<path d="M61.753 27.2133C61.753 26.0616 62.4597 25.2815 63.4911 25.2815C64.5034 25.2815 65.1719 26.0059 65.1719 27.0832V27.3619H62.326C62.3451 28.0491 62.7844 28.6435 63.4911 28.6435C64.0259 28.6435 64.3124 28.4578 64.6371 27.9191L65.0955 28.1791C64.7708 28.8107 64.2169 29.1264 63.5102 29.1264C62.4406 29.1264 61.753 28.3463 61.753 27.2133ZM64.5989 26.9346C64.5798 26.2845 64.1405 25.7644 63.4911 25.7644C62.8417 25.7644 62.3451 26.3217 62.326 26.9346H64.5989Z" fill="#100E0E"/>
<path d="M65.9352 24.0183H66.4891V29.0335H65.9352V24.0183Z" fill="#100E0E"/>
<path d="M67.428 25.3929H67.9819V25.783H68.001C68.2493 25.4858 68.6313 25.3 69.0897 25.3C70.0828 25.3 70.7704 26.0802 70.7704 27.2318C70.7704 28.3834 70.0637 29.1636 69.0897 29.1636C68.6313 29.1636 68.2111 28.9778 67.9819 28.6992H67.9628V30.6124H67.4089L67.428 25.3929ZM70.2165 27.2132C70.2165 26.3588 69.7581 25.783 69.0706 25.783C68.4403 25.783 67.9628 26.2659 67.9628 26.8417V27.5476C67.9628 28.142 68.4594 28.6249 69.0515 28.6249C69.7581 28.6249 70.2165 28.0677 70.2165 27.2132Z" fill="#100E0E"/>
<path d="M73.1174 28.1048C73.1174 27.4919 73.4994 27.1761 74.4353 26.9532C75.1611 26.786 75.3903 26.6374 75.3903 26.3402C75.3903 26.0059 75.0847 25.783 74.6263 25.783C74.1297 25.783 73.7859 26.0802 73.6904 26.5631L73.1365 26.4517C73.2702 25.7459 73.8432 25.2815 74.6263 25.2815C75.4667 25.2815 75.9824 25.7273 75.9824 26.4703V29.0336H75.4667V28.6435H75.4476C75.2375 28.9407 74.8364 29.1264 74.3589 29.1264C73.5949 29.1264 73.1174 28.7364 73.1174 28.1048ZM75.4094 27.7891V26.9718H75.3903C75.3139 27.1575 75.0656 27.269 74.569 27.399C73.9196 27.5662 73.6522 27.7519 73.6522 28.0677C73.6522 28.4392 73.9005 28.6249 74.378 28.6249C74.9892 28.6249 75.4094 28.272 75.4094 27.7891Z" fill="#100E0E"/>
<path d="M77.5856 25.876V28.1979C77.5856 28.4393 77.6811 28.5322 77.9867 28.5322H78.2923V29.0337H77.9294C77.2418 29.0337 77.0126 28.8108 77.0126 28.1979V25.876H76.4397V25.3931H77.0126V24.5758H77.5665V25.3931H78.4833V25.876H77.5856Z" fill="#100E0E"/>
<path d="M80.6628 25.3927H81.1976L81.8852 28.216H81.9043L82.9166 25.3927H83.4132L84.4254 28.216H84.4446L85.1321 25.3927H85.6669L84.7692 29.0333H84.2536L83.184 26.0614H83.1649L82.0953 29.0333H81.5796L80.6628 25.3927Z" fill="#100E0E"/>
<path d="M85.9919 27.213C85.9919 26.0614 86.6986 25.2812 87.7491 25.2812C88.8187 25.2812 89.5254 26.0614 89.5254 27.213C89.5254 28.3646 88.8187 29.1448 87.7491 29.1448C86.6986 29.1262 85.9919 28.3461 85.9919 27.213ZM88.9715 27.213C88.9715 26.34 88.494 25.7828 87.7491 25.7828C87.0042 25.7828 86.5458 26.34 86.5458 27.213C86.5458 28.086 87.0042 28.6433 87.7491 28.6433C88.494 28.6247 88.9715 28.0674 88.9715 27.213Z" fill="#100E0E"/>
<path d="M90.3088 25.3925H90.8245V25.6897H90.8436C90.9773 25.4668 91.2638 25.3182 91.6267 25.3182C91.7604 25.3182 91.875 25.3368 92.0087 25.374L91.8941 25.9312C91.7604 25.8941 91.6458 25.8755 91.5312 25.8755C91.0919 25.8755 90.8818 26.1541 90.8818 26.8414V29.0332H90.3279L90.3088 25.3925Z" fill="#100E0E"/>
<path d="M92.6013 24.0183H93.1552V27.0088H93.1743L94.7405 25.3928H95.5235L94.1293 26.8045L95.619 29.0335H94.9697L93.7473 27.176H93.7282L93.1552 27.7518V29.0149H92.6013V24.0183Z" fill="#100E0E"/>
<path d="M96.4011 28.2356H97.2415V29.0328H96.4011V28.2356Z" fill="#100E0E"/>
<path d="M97.5095 24.2226H97.1848V24.0369H98.0443V24.2226H97.7196V25.1329H97.5286V24.2226H97.5095ZM98.1971 24.0369H98.4645L98.8083 24.8542L99.1521 24.0369H99.4194V25.1143H99.2284V24.3155L98.8847 25.1329H98.7319L98.3881 24.3155V25.1329H98.1971V24.0369Z" fill="#100E0E"/>
</svg>
