<svg width="52" height="29" viewBox="0 0 52 29" fill="none" xmlns="http://www.w3.org/2000/svg">
<path d="M48.1064 14.0213C48.1917 11.3493 46.0596 9.17834 43.4157 9.09484C40.6865 9.01134 38.3838 11.0988 38.2985 13.6873C38.2132 16.4428 40.3454 18.6973 43.1598 18.7808C45.8037 18.7808 48.0211 16.6933 48.1064 14.0213ZM51.0914 21.5363H48.1917V19.9498C48.0211 20.0333 47.8506 20.1168 47.7653 20.2003C42.904 23.4568 36.5075 20.7013 35.5694 15.0233C34.8871 10.9318 38.0427 6.84035 42.2217 6.33935C47.083 5.75486 51.0914 9.26184 51.0914 14.0213V21.5363ZM16.4653 17.5283C16.6359 17.1943 16.7212 17.0273 16.8064 16.7768C18.2563 13.3533 19.7915 10.0133 21.2413 6.58985C21.4119 6.25585 21.5825 6.08885 21.9236 6.17235C22.8618 6.17235 23.7146 6.17235 24.7381 6.17235C24.6528 6.33935 24.6528 6.50635 24.5675 6.67335C21.3266 13.9378 18.171 21.1188 14.9302 28.3832C14.7596 28.7172 14.6743 28.8007 14.2479 28.8007C13.3097 28.8007 12.3716 28.8007 11.4334 28.8007C11.5187 28.6337 11.604 28.4667 11.604 28.2997C12.6274 26.1287 13.6509 23.8743 14.6743 21.7033C14.8449 21.3693 14.8449 21.1188 14.6743 20.7848C12.7127 16.1088 10.8364 11.4328 8.87485 6.75685C8.87485 6.58985 8.78956 6.50635 8.70428 6.25585C9.72771 6.25585 10.6659 6.25585 11.6893 6.25585C11.8599 6.25585 12.0304 6.50635 12.0304 6.67335C13.2244 9.59583 14.4184 12.5183 15.6124 15.4408C15.8683 16.1088 16.1242 16.7768 16.4653 17.5283ZM0.772675 0.494385H3.6724V15.5243C3.6724 17.6953 4.52526 18.5303 6.65741 18.6973C7.25441 18.6973 7.76613 18.6973 8.44842 18.6973V21.5363C6.57213 21.6198 4.61055 21.7033 2.90483 20.7013C1.54025 19.9498 0.772675 18.6973 0.772675 17.1943C0.772675 11.5998 0.772675 6.08885 0.772675 0.494385ZM26.5291 6.25585H29.4288V9.01134C30.9639 7.00735 32.8402 6.17235 35.2282 6.25585V9.01134C35.1429 9.01134 35.0577 9.09484 34.8871 9.09484C32.1579 8.92784 30.2816 10.7648 29.5994 13.2698C29.4288 13.9378 29.3435 14.6058 29.3435 15.3573C29.3435 17.3613 29.3435 19.4488 29.3435 21.4528C29.3435 21.4528 29.3435 21.5363 29.3435 21.6198H26.5291V6.25585Z" fill="#100E0E"/>
</svg>
