<svg width="98" height="38" viewBox="0 0 98 38" fill="none" xmlns="http://www.w3.org/2000/svg">
<path d="M0.787079 20.6246C3.33821 13.5562 11.5268 8.95861 18.6753 10.5896C19.3425 10.7419 20.1204 10.831 20.0408 11.8003C13.965 11.0902 9.03233 13.3212 4.80013 17.2006C1.67258 20.0673 1.12514 23.2798 3.30354 26.8459C6.81574 32.5955 12.1404 35.6852 19.0429 35.6541C24.1757 35.6309 27.8223 33.0753 29.787 28.4063C31.6742 23.9214 31.9302 19.2068 31.8142 14.4405C31.7406 11.4154 31.616 8.3871 31.6885 5.36408C31.7433 3.08489 32.4838 1.05048 34.9177 0.0721436C35.3692 0.0721436 35.8205 0.0721436 36.2721 0.0721436C37.4601 0.593063 38.5929 1.16589 38.8839 2.75684C38.1387 2.53288 37.5113 2.33947 36.881 2.15608C35.227 1.67522 34.049 2.15134 33.6465 3.76548C33.2688 5.28029 33.093 6.87255 33.0668 8.43426C32.9939 12.7684 33.1483 17.1073 33.0134 21.4385C32.9148 24.5999 32.2124 27.6801 30.8705 30.6043C29.1193 34.4207 26.1529 36.5758 21.8809 37.0358C21.6176 37.0643 21.3621 37.1599 21.1029 37.2242C20.3805 37.2242 19.6583 37.2242 18.9359 37.2242C18.5504 37.1428 18.1682 37.0414 17.7792 36.9826C10.955 35.9479 5.49764 32.9283 2.29397 26.7471C1.63926 25.4837 1.2817 24.0745 0.787079 22.7323C0.787079 22.0298 0.787079 21.3274 0.787079 20.6246Z" fill="#100E0E"/>
<path d="M97.4883 17.4626C97.1638 18.8804 96.0865 19.2208 94.8383 19.0142C93.7439 18.8332 92.6341 18.5265 91.6384 18.0594C90.7981 17.6649 90.1355 17.646 89.3982 18.1437C88.9922 18.418 88.5645 18.6641 88.1351 18.9033C86.2048 19.9789 84.611 19.4611 83.8821 17.3956C83.5527 16.4623 83.3915 15.4279 83.3902 14.4393C83.3874 12.3822 83.5765 10.3257 83.622 8.26755C83.6621 6.45658 83.5204 4.66565 82.2324 2.99011C83.6031 3.15084 84.3835 3.88334 84.4926 4.96049C84.6763 6.77541 84.6102 8.61457 84.6443 10.4434C84.6801 12.3595 84.5555 14.2944 84.792 16.1865C84.9743 17.6441 85.6728 18.0422 86.9579 17.2973C89.1344 16.0355 91.1318 16.2186 93.3297 17.0932C94.7115 17.6431 96.1618 17.3814 97.4883 16.6721C97.4883 16.9356 97.4883 17.1991 97.4883 17.4626Z" fill="#100E0E"/>
<path d="M37.6104 15.5152C37.6559 14.8327 37.803 14.1648 38.0004 13.602C38.7505 11.4627 40.4987 11.0053 42.3068 12.4292C44.1377 13.8712 44.5164 16.9246 43.0518 18.4365C42.1351 19.3829 40.4597 19.8013 39.325 19.2586C37.9005 18.5769 37.5107 17.011 37.6104 15.5152ZM42.2215 15.3452C42.2348 14.0976 41.6297 13.0473 40.7967 12.9398C40.0353 12.8418 39.7113 13.3456 39.4439 13.9469C39.0999 14.7207 38.7128 15.5152 38.7137 16.3773C38.7142 16.9957 38.9501 17.7983 39.6547 17.9614C40.6431 18.1901 41.7721 17.2916 42.1175 15.9879C42.1839 15.7365 42.2015 15.4733 42.2215 15.3452Z" fill="#100E0E"/>
<path d="M79.5016 18.3322C79.2748 17.5378 78.8209 16.8053 78.5852 16.0122C78.469 15.6211 78.4861 15.0905 78.6708 14.7355C79.3772 13.3786 79.2648 11.9968 78.0364 11.0625C77.7444 10.8404 77.4012 10.6962 77.0593 10.5634C76.702 10.4246 76.1979 10.2054 75.9019 10.5779C75.6798 10.8578 75.6012 11.3154 75.5305 11.6553C75.4601 11.9937 75.3544 12.362 75.4769 12.6998C75.8613 13.7588 75.3032 14.3208 74.3349 14.4602C72.4712 14.7287 70.5921 14.9002 68.7166 15.0847C67.9299 15.1621 67.2384 15.052 66.7519 14.2739C66.3215 13.5854 65.7505 13.5677 65.0733 14.1537C64.4405 14.7013 63.6614 15.0891 62.8399 15.6159C62.5175 14.5097 62.3277 13.7019 62.0459 12.9254C61.5313 11.5075 60.4123 10.6612 59.26 10.8997C57.9245 11.1761 57.6425 12.3149 57.4318 13.4017C57.3251 13.9522 57.2915 14.5669 57.4329 15.1005C57.6591 15.9544 58.0583 16.7652 58.3856 17.5976C55.9233 17.9833 55.0373 17.2429 55.2653 14.8702C55.3823 13.6531 55.7334 12.459 55.9108 11.2454C56.0243 10.4694 56.1915 9.63016 55.9951 8.90662C55.865 8.42759 55.1334 8.10323 54.671 7.70984C54.3972 8.07793 54.0139 8.41046 53.873 8.82177C53.6089 9.59327 53.4848 10.4104 53.3069 11.1905C49.488 10.8053 47.0328 12.9356 47.2227 16.3291C47.3633 18.846 48.9942 19.8583 51.3712 18.8394C52.306 18.4386 53.1663 17.8737 54.1252 17.348C55.8929 19.3906 58.1464 19.3329 60.412 18.456C62.1172 17.796 63.6958 16.8298 65.3441 16.0256C65.6735 15.8649 66.1814 15.6259 66.406 15.7547C68.0193 16.6804 69.7215 16.3745 71.424 16.2427C72.4894 16.1602 73.5585 16.1212 74.7309 16.0572C74.6312 16.4408 74.5702 16.6429 74.5264 16.8487C74.0575 19.0541 75.758 20.7589 78.0432 20.3766C79.2223 20.179 79.8123 19.4212 79.5016 18.3322ZM53.1641 14.8317C52.9482 15.8361 52.167 16.6925 51.2688 17.1923C50.814 17.4455 50.3026 17.6208 49.7771 17.6521C49.3445 17.6779 48.894 17.552 48.6172 17.2108C48.5392 17.1146 48.4828 17.0142 48.4446 16.9112C48.2626 16.4216 48.4831 15.8688 48.6778 15.3914C48.8656 14.9305 49.1188 14.4894 49.4726 14.129C50.1073 13.4824 50.999 13.1488 51.9148 13.1976C53.0577 13.2584 53.3865 13.7967 53.1641 14.8317ZM60.9852 15.0148C60.7257 15.4024 60.279 15.8862 59.7944 15.9963C59.621 16.0356 59.3995 15.9241 59.2602 15.8385C58.9531 15.6501 58.6676 15.3176 58.5852 14.9682C58.3783 14.0905 59.491 12.7881 60.1081 13.0368C60.3844 13.1483 60.5645 13.402 60.7316 13.6305C60.9857 13.9777 61.1935 14.2146 61.1805 14.5145C61.1737 14.6597 61.1155 14.8199 60.9852 15.0148ZM77.1051 11.444C77.5466 11.444 77.9045 11.8864 77.9045 12.4321C77.9045 12.9778 77.5466 13.4199 77.1051 13.4199C76.6636 13.4199 76.3058 12.9775 76.3058 12.4321C76.3058 11.8862 76.6636 11.444 77.1051 11.444ZM77.1051 18.9617C76.5346 18.9617 76.0723 18.3901 76.0723 17.6853C76.0723 16.9805 76.5346 16.409 77.1051 16.409C77.6756 16.409 78.138 16.9805 78.138 17.6853C78.138 18.3901 77.6756 18.9617 77.1051 18.9617Z" fill="#100E0E"/>
<path d="M96.359 6.98871C96.6929 6.98871 96.9636 6.39527 96.9636 5.66324C96.9636 4.9312 96.6929 4.33777 96.359 4.33777C96.0251 4.33777 95.7544 4.9312 95.7544 5.66324C95.7544 6.39527 96.0251 6.98871 96.359 6.98871Z" fill="#100E0E"/>
</svg>
