<svg width="65" height="13" viewBox="0 0 65 13" fill="none" xmlns="http://www.w3.org/2000/svg">
<path d="M46.3988 9.35767V8.51838C46.0077 8.85161 45.1932 8.86795 44.476 8.99297C43.7588 9.13575 43.1088 9.37351 43.1088 10.1979C43.1088 11.0365 43.7747 11.2433 44.5244 11.2433C46.3337 11.2431 46.3988 9.84885 46.3988 9.35767ZM16.4588 7.55173H20.2219C20.01 6.41013 19.5051 5.80839 18.3808 5.80839C16.9144 5.80839 16.4913 6.91711 16.4588 7.55173ZM24.7549 7.55173H28.5187C28.3061 6.41013 27.8019 5.80839 26.6769 5.80839C25.2103 5.80839 24.7874 6.91711 24.7549 7.55173ZM41.1535 7.21938H38.8894C38.7439 6.29953 38.1395 5.80856 37.1791 5.80856C35.6976 5.80856 35.2068 7.26755 35.2068 8.47108C35.2068 9.64289 35.6806 11.0532 37.129 11.0532C38.2052 11.0532 38.8231 10.3876 38.9713 9.39022H40.938C41.3328 8.28025 42.4986 7.96006 43.6616 7.80478C45.0797 7.59937 46.3988 7.64617 46.3988 6.72699C46.3988 5.76196 45.7146 5.61827 44.8989 5.61827C44.0206 5.61827 43.4499 6.33066 43.3694 7.21746L41.1535 7.21938ZM64.6248 8.97647H58.5492C58.613 10.4038 59.3307 11.053 60.6168 11.053C61.5448 11.053 62.2946 10.4988 62.4415 9.9925H64.4787C63.8258 11.9235 62.4415 12.7491 60.5363 12.7491C58.4828 12.7491 57.0308 11.6864 56.4807 10.031C56.4011 12.08 54.5198 12.7491 52.6394 12.7491C50.7924 12.7491 48.9891 12.1145 48.7124 10.2151V10.7049C48.7124 11.4494 48.7942 12.1941 49.0059 12.5265H46.6589C46.5775 12.2736 46.5132 12.0044 46.4965 11.7351C45.7648 12.4797 44.6885 12.7491 43.6616 12.7491C42.2014 12.7491 41.0137 12.0979 40.8216 10.7021C40.1803 12.0346 38.8626 12.7491 37.146 12.7491C34.983 12.7491 33.4238 11.4865 33.0065 9.59613V12.5265H30.6931V8.97647H24.7549C24.8191 10.4038 25.5366 11.053 26.8246 11.053C27.7525 11.053 28.5017 10.4988 28.648 9.9925H30.6846C30.0329 11.9235 28.648 12.7491 26.742 12.7491C24.2789 12.7491 22.6857 11.2227 22.467 8.97664H16.4588C16.523 10.404 17.2412 11.0532 18.5278 11.0532C19.4558 11.0532 20.2056 10.4989 20.3526 9.99267H22.3892C21.7375 11.9237 20.3526 12.7493 18.4461 12.7493C15.791 12.7493 14.1456 10.9742 14.1456 8.4382C14.1456 5.98317 15.8884 4.11268 18.4461 4.11268C20.838 4.11268 22.1987 5.744 22.4889 7.7471C22.784 5.64098 24.4308 4.11268 26.742 4.11268C28.9396 4.11268 30.265 5.4892 30.6929 7.26563V1.21436H33.0063V7.41633C33.4075 5.46003 34.8819 4.11233 37.1953 4.11233C39.0306 4.11233 40.7254 4.97785 41.0899 6.7562C41.3758 4.59591 43.2443 4.11233 45.0154 4.11233C46.6923 4.11233 48.7124 4.47703 48.7124 6.44301V9.86519H50.8781C50.8948 10.8468 51.7423 11.2431 52.6553 11.2431C53.3215 11.2431 54.1693 10.9902 54.1693 10.1977C54.1693 9.51562 53.2084 9.27786 51.5465 8.93038C50.2106 8.64532 48.8752 8.18586 48.8752 6.7432C48.8752 4.65218 50.7324 4.11233 52.5396 4.11233C54.3827 4.11233 56.0754 4.71478 56.255 6.72665H54.0558C53.9915 5.8564 53.3052 5.61794 52.477 5.61794C51.9543 5.61794 51.1887 5.71483 51.1887 6.379C51.1887 7.18754 52.4912 7.29677 53.8125 7.59903C54.8261 7.82429 55.8244 8.14785 56.2584 8.9413C56.2412 8.77635 56.2357 8.60944 56.2357 8.43782C56.2357 5.9828 57.9785 4.11233 60.5363 4.11233C63.4034 4.11233 64.7872 6.45743 64.6248 8.97647ZM58.5492 7.55173H62.3109C62.0988 6.41013 61.5954 5.80839 60.4712 5.80839C59.0046 5.80839 58.5818 6.91711 58.5492 7.55173ZM12.8327 1.87783V4.33495H14.5261V5.6394H12.8327V9.89615C12.8327 10.6558 13.0276 10.8468 13.8093 10.8468C14.0537 10.8468 14.2817 10.8303 14.5261 10.7842V12.5426C14.1349 12.6065 13.6307 12.6209 13.1739 12.6209C11.7566 12.6209 10.5193 12.3035 10.5193 10.6721V5.6394H7.29788L7.29716 4.58764C7.21507 3.22623 6.2208 2.87805 4.99998 2.87805C4.18504 2.87805 3.2403 3.20988 3.2403 4.16051C3.2403 5.03078 3.79456 5.14351 6.71033 5.8729C7.55709 6.07903 10.1641 6.60109 10.1641 9.16726C10.1641 11.2431 8.48632 12.7948 5.32538 12.7948C2.75147 12.7948 0.340613 11.5584 0.372972 8.77018H2.84873C2.84873 10.2758 4.05416 10.8624 5.42336 10.8624C6.31878 10.8624 7.68724 10.6095 7.68724 9.45211C7.68724 8.23157 5.94438 8.02474 4.23404 7.58303C2.5067 7.13936 0.763273 6.48944 0.763273 4.36695C0.763634 2.05368 3.01198 0.943726 5.11352 0.943726C7.46073 0.943726 9.62522 1.90684 9.76566 4.33495H10.5191V1.87783H12.8327Z" fill="#100E0E"/>
</svg>
