<svg width="71" height="18" viewBox="0 0 71 18" fill="none" xmlns="http://www.w3.org/2000/svg">
<path d="M52.8669 0.246948C58.6082 0.246948 64.3453 0.246948 70.1058 0.246948C70.1058 5.84382 70.1058 11.4327 70.1058 17.0421C64.3638 17.0421 58.6279 17.0421 52.8669 17.0421C52.8669 11.4472 52.8669 5.85728 52.8669 0.246948Z" fill="#100E0E"/>
<path d="M18.1835 0.243422C18.1835 5.86127 18.1835 11.4426 18.1835 17.0365C18.1271 17.0463 18.0852 17.06 18.0433 17.06C15.1333 17.059 12.2226 17.0955 9.31345 17.0451C5.61508 16.9811 2.41522 14.602 1.30431 11.1774C-0.232433 6.43997 2.815 1.38219 7.80626 0.414497C8.41657 0.296157 9.04884 0.23911 9.67151 0.234798C12.4135 0.215782 15.1557 0.226368 17.8979 0.227152C17.9857 0.227217 18.0734 0.236888 18.1835 0.243422Z" fill="#100E0E"/>
<path d="M42.5338 0.268433C47.2981 0.313063 51.1615 3.96291 51.1547 8.67619C51.1477 13.4791 47.1913 17.0402 42.5529 17.0602C37.796 17.0806 33.9199 13.3139 33.9162 8.67835C33.9127 4.04642 37.7781 0.274118 42.5338 0.268433Z" fill="#100E0E"/>
<path d="M36.971 17.0433C31.2323 17.0433 25.516 17.0433 19.7805 17.0433C19.7805 11.4564 19.7805 5.88865 19.7805 0.371826C25.4925 5.91132 31.2233 11.4691 36.971 17.0433Z" fill="#100E0E"/>
</svg>
