<svg width="71" height="16" viewBox="0 0 71 16" fill="none" xmlns="http://www.w3.org/2000/svg">
<path d="M16.8068 0.338328C18.3521 0.338328 19.8974 0.338328 21.5757 0.338328C21.5757 0.547455 21.5757 0.820289 21.5757 1.09312C21.5757 3.96157 21.5757 6.83018 21.5758 9.69863C21.5758 9.93327 21.5737 10.1681 21.5778 10.4027C21.6222 13.0465 23.6297 14.1531 26.0197 12.8491C27.0798 12.2708 27.7455 11.5617 27.6701 10.2014C27.5404 7.86125 27.6363 5.50936 27.6334 3.16232C27.6311 1.34968 27.4459 1.13648 25.6417 0.76785C25.4896 0.736701 25.3591 0.605369 25.2186 0.520685C25.3705 0.426139 25.5213 0.251297 25.6745 0.249262C27.2243 0.228912 28.7746 0.236894 30.4191 0.236894C30.4191 0.57923 30.4191 0.858324 30.4191 1.13726C30.4191 4.47515 30.4186 7.81304 30.4192 11.1509C30.4197 12.9481 30.4812 13.0196 32.284 13.3972C32.3519 13.4114 32.4079 13.4795 32.6744 13.6655C31.0068 14.2127 29.4849 14.712 27.8477 15.2493C27.8477 14.3268 27.8477 13.4889 27.8477 12.5283C27.1051 13.178 26.5143 13.7722 25.8447 14.2651C24.3426 15.3707 22.6947 15.6656 20.9465 14.8517C19.5218 14.1884 18.8542 13.0159 18.837 11.5168C18.8051 8.72688 18.8228 5.93638 18.8148 3.14619C18.8138 2.78179 18.8138 2.41331 18.76 2.05407C18.654 1.34342 18.2837 0.851907 17.4981 0.735916C17.2521 0.699601 17.0139 0.612884 16.7722 0.549332C16.7839 0.479049 16.7954 0.408768 16.8068 0.338328Z" fill="#100E0E"/>
<path d="M33.9916 7.70645C33.9684 4.13798 36.2324 1.13539 39.563 0.368539C44.2926 -0.720454 48.5411 2.53353 48.609 7.26612C48.6402 9.43973 48.053 11.3898 46.5681 13.035C44.679 15.1276 42.2628 15.7256 39.5698 15.063C36.7192 14.3617 35.0268 12.4387 34.289 9.71366C34.1133 9.0642 34.0867 8.3764 33.9916 7.70645ZM37.0468 6.72797C37.0382 6.95478 37.0359 7.18066 37.0411 7.40434C37.0739 8.83629 37.4118 10.2628 38.0396 11.559C38.0647 11.6108 38.0903 11.6625 38.1163 11.714C38.5017 12.475 39.0056 13.2098 39.7011 13.735C40.4648 14.3116 41.4134 14.4952 42.364 14.3822C43.7239 14.2204 44.538 13.3621 44.9671 12.2158C46.2525 8.78166 45.8753 5.46491 43.7114 2.48846C42.4403 0.739994 39.8153 0.562642 38.3469 2.18197C37.7211 2.87212 37.4355 3.78297 37.2773 4.67332C37.1584 5.34265 37.0731 6.0397 37.0468 6.72797Z" fill="#100E0E"/>
<path d="M6.80993 0.536922C6.63501 0.618944 6.46813 0.73055 6.28371 0.778293C5.19541 1.05989 4.97511 1.40301 5.40718 2.46962C6.1619 4.33298 6.97552 6.17364 7.76998 8.02165C8.16697 8.94503 8.57668 9.86341 9.06861 10.9848C10.2395 8.04216 11.3587 5.32038 12.399 2.57042C12.8353 1.41741 12.562 1.06287 11.3273 0.736809C11.1966 0.702372 11.0853 0.599062 10.9937 0.37663C12.4999 0.37663 14.006 0.37663 15.5606 0.37663C15.528 0.483541 15.517 0.646181 15.4696 0.656981C14.3314 0.915729 13.9833 1.84694 13.6138 2.73651C11.9705 6.69223 10.3441 10.6547 8.70703 14.6129C8.60194 14.8668 8.4584 15.1055 8.21573 15.5801C7.8881 15.0091 7.62564 14.6394 7.45104 14.2339C5.81817 10.4432 4.19528 6.6484 2.58141 2.84999C2.15754 1.85241 1.64517 0.967853 0.42668 0.742604C0.334311 0.725542 0.268329 0.57386 0.0861664 0.366455C2.38717 0.366455 4.55044 0.366455 6.71354 0.366455C6.74556 0.42312 6.77774 0.4801 6.80993 0.536922Z" fill="#100E0E"/>
<path d="M58.4026 15.1656C58.1958 15.1847 57.9892 15.2199 57.7825 15.2202C55.5318 15.2241 53.2812 15.2296 51.0307 15.2119C50.8104 15.2102 50.5915 15.0574 50.3719 14.9748C50.5711 14.8679 50.7582 14.7068 50.9713 14.6626C52.4605 14.353 52.7878 13.9866 52.7934 12.4807C52.8027 10.0049 52.7963 7.52885 52.7949 5.05298C52.7947 4.84464 52.7852 4.63614 52.7748 4.42795C52.6822 2.59934 52.24 2.21913 50.279 2.43264C50.4189 2.20942 50.4774 1.97791 50.6055 1.93252C52.2049 1.36665 53.8143 0.827715 55.5069 0.25293C55.5069 1.24472 55.5069 2.16716 55.5069 3.24724C56.195 2.49901 56.7466 1.8494 57.3534 1.25301C57.9928 0.624533 58.7525 0.208474 59.714 0.285958C60.8924 0.381129 61.6262 1.41847 61.29 2.52092C60.989 3.50864 59.9436 3.83047 59.0499 3.21061C57.6186 2.21835 56.9371 2.33512 56.0472 3.83423C55.7923 4.26375 55.6428 4.81239 55.634 5.3097C55.5918 7.65455 55.6015 10.0007 55.6202 12.3461C55.633 13.957 56.1969 14.5183 57.8618 14.6983C58.071 14.7209 58.2697 14.8344 58.4734 14.9057C58.4496 14.9923 58.4261 15.079 58.4026 15.1656Z" fill="#100E0E"/>
<path d="M62.3433 2.1798C62.4988 2.01842 62.6249 1.76985 62.8145 1.70958C64.3616 1.2176 65.9206 0.760687 67.5851 0.260254C67.6035 0.589441 67.6312 0.856641 67.6313 1.12384C67.6342 4.5904 67.6329 8.0568 67.6339 11.5234C67.6341 11.8621 67.6321 12.2015 67.6498 12.5396C67.7353 14.1672 67.9874 14.432 69.6485 14.7091C69.8359 14.7404 70.0093 14.8523 70.1892 14.927C70.1697 14.9905 70.1502 15.0541 70.1306 15.1176C67.5126 15.1176 64.8947 15.1176 62.2767 15.1176C62.2559 15.0563 62.2353 14.9948 62.2146 14.9334C62.4133 14.8511 62.6046 14.7282 62.8117 14.6928C64.6203 14.3846 64.849 14.1368 64.8533 12.3417C64.8601 9.55293 64.8574 6.764 64.8543 3.97523C64.8525 2.31505 64.5223 2.04534 62.8729 2.33054C62.7483 2.35215 62.6193 2.34855 62.4923 2.35653C62.4427 2.29767 62.393 2.23866 62.3433 2.1798Z" fill="#100E0E"/>
</svg>
