<svg width="80" height="14" viewBox="0 0 80 14" fill="none" xmlns="http://www.w3.org/2000/svg">
<path d="M8.47336 6.53552L9.67889 8.39527L12.1038 4.63577V12.9637H14.1927V0.849784H12.0611L8.47336 6.53552Z" fill="#100E0E"/>
<path d="M2.61441 0.849295H0.501678V12.9633H2.5958V4.63528L7.35014 12.03L8.56289 10.143L2.61441 0.849295Z" fill="#100E0E"/>
<path d="M26.7543 9.20835L28.6871 12.9633H31.2062L24.8863 0.849568H22.6153L22.6133 0.853351L25.7777 7.27753H21.5728L22.6703 5.18324L21.5256 2.90738L16.2004 12.9633H18.5565L20.547 9.20916L26.7543 9.20835Z" fill="#100E0E"/>
<path d="M45.1545 0.848814H43.0598V6.73152L45.1545 8.77771V0.848814Z" fill="#100E0E"/>
<path d="M35.0439 0.849417H32.9128V12.9634H35.0083V3.91155L43.5937 12.9634H45.1534V11.4914L35.0439 0.849417Z" fill="#100E0E"/>
<path d="M59.7896 4.21091C58.7922 3.20358 57.2541 2.5585 55.5286 2.5585C52.7748 2.5585 50.4987 4.20254 50.1357 6.33606H47.8293C48.1307 3.02449 51.6151 0.583554 55.557 0.583554C57.9013 0.583554 60.0077 1.43259 61.4257 2.79865L59.7896 4.21091Z" fill="#100E0E"/>
<path d="M55.3368 11.2713C53.0377 11.2713 51.0805 10.0595 50.3505 8.36429H47.9978C48.7758 11.2862 51.8349 13.2351 55.4671 13.2351C56.3104 13.2351 57.2809 13.154 58.0867 12.9595C59.9053 12.5218 61.8914 11.3721 61.8914 9.5572V6.33647H55.3126L55.3079 8.36429H59.7889V9.28484C59.7889 10.3013 58.2276 10.8893 57.272 11.0957C56.7579 11.2067 56.0979 11.2713 55.5651 11.2713H55.3368Z" fill="#100E0E"/>
<path d="M79.2057 6.91813C79.2057 3.30534 75.8343 0.502603 71.6933 0.502603C67.6837 0.502603 64.161 3.17592 64.161 6.72359C64.161 10.0686 66.9276 12.7487 70.6544 13.1737V11.1499C68.2162 10.7592 66.3734 8.98729 66.3734 6.85626C66.3734 4.43882 68.7431 2.47774 71.665 2.47774C74.5883 2.47774 76.9571 4.43882 76.9571 6.85626C76.9571 8.97081 75.1432 10.7309 72.7333 11.1402V13.1683C76.3093 12.7454 79.2057 10.1653 79.2057 6.91813Z" fill="#100E0E"/>
</svg>
