<svg width="72" height="34" viewBox="0 0 72 34" fill="none" xmlns="http://www.w3.org/2000/svg">
<path d="M67.4179 15.5478H68.5544C68.867 15.5478 69.1085 15.4483 69.279 15.2352C69.4495 15.0221 69.5347 14.7238 69.5347 14.3402C69.5347 13.9282 69.4495 13.6014 69.2648 13.3741C69.0943 13.1326 68.8528 13.0047 68.5544 13.0047H67.4037V15.5478H67.4179ZM67.4179 16.9258V19.8098H65.7699V11.6267H68.5544C69.3642 11.6267 70.0035 11.8824 70.4866 12.3796C70.9696 12.8769 71.2111 13.5304 71.2111 14.3402C71.2111 15.1358 70.9696 15.7751 70.5008 16.2439C70.0177 16.7127 69.3642 16.94 68.526 16.94H67.4179V16.9258ZM61.9056 18.4317H64.8038V19.8098H60.2577V11.6267H61.9056V18.4317ZM56.3934 18.4317H59.2916V19.8098H54.7454V11.6267H56.3934V18.4317ZM50.7107 19.8098H49.0627V11.6267H50.7107V19.8098ZM47.6562 19.8098H46.0082L43.593 14.4396V19.8098H41.945V11.6267H43.593L46.0224 16.9969V11.6267H47.6704V19.8098H47.6562ZM40.6096 19.8098H38.9616L36.5464 14.4396V19.8098H34.8985V11.6267H36.5464L38.9758 16.9969V11.6267H40.6238V19.8098H40.6096ZM33.634 11.6267V17.2952C33.6198 18.1476 33.3925 18.8011 32.9379 19.2557C32.4833 19.7104 31.8156 19.9235 30.949 19.9235C30.0681 19.9235 29.4004 19.6962 28.9316 19.2415C28.477 18.7869 28.2354 18.1192 28.2354 17.2526V11.6267H29.8976V17.2526C29.8976 17.7214 29.9687 18.0482 30.125 18.2471C30.2812 18.446 30.5512 18.5454 30.9347 18.5454C31.3325 18.5454 31.6025 18.446 31.7445 18.2471C31.8866 18.0482 31.9718 17.7214 31.9718 17.281V11.6267H33.634ZM22.2686 13.644C22.2686 13.914 22.3964 14.2407 22.6522 14.6243L22.9221 14.4254C23.0784 14.3118 23.192 14.1839 23.2631 14.056C23.3341 13.9282 23.3625 13.7577 23.3625 13.5304C23.3625 13.3315 23.3057 13.1752 23.2062 13.0474C23.1068 12.9195 22.9789 12.8485 22.8226 12.8485C22.6522 12.8485 22.5243 12.9195 22.4249 13.0758C22.3254 13.2036 22.2686 13.4025 22.2686 13.644ZM22.6522 18.6022C22.9505 18.6022 23.2204 18.5028 23.4904 18.3039L22.1975 16.4712L22.1691 16.4996C21.9844 16.7838 21.885 17.1247 21.885 17.4941C21.885 17.8066 21.956 18.0766 22.0981 18.2755C22.2544 18.5028 22.4391 18.6022 22.6522 18.6022ZM20.2796 17.6077C20.2796 17.2242 20.3649 16.869 20.5353 16.5564C20.7058 16.2439 21.0326 15.8887 21.5156 15.4909C21.3025 15.1642 21.1462 14.8516 21.0326 14.5675C20.9189 14.2691 20.8479 13.9708 20.8479 13.6582C20.8479 13.0189 21.0326 12.4933 21.3878 12.0955C21.7429 11.6977 22.226 11.4988 22.8226 11.4988C23.3625 11.4988 23.8029 11.6835 24.1439 12.0529C24.4991 12.4223 24.6695 12.8769 24.6695 13.4025C24.6695 14.1129 24.3712 14.7096 23.7745 15.1784L23.3199 15.5478L24.3712 17.0111C24.4991 16.6275 24.5701 16.2155 24.5701 15.7609H25.9197C25.9197 16.8122 25.7066 17.6646 25.2946 18.3039L26.3459 19.7814H24.5417L24.2433 19.3552C23.7603 19.7104 23.2062 19.895 22.5669 19.895C21.8708 19.895 21.3309 19.6819 20.9047 19.2557C20.4785 18.8295 20.2796 18.3039 20.2796 17.6077ZM15.563 17.5651L16.941 11.6267H18.7879L16.4296 19.8098H14.7105L12.3522 11.6267H14.1849L15.563 17.5651ZM11.4714 16.2723H8.89995V18.446H11.9402V19.824H7.23775V11.6267H11.926V13.0047H8.89995V14.9369H11.4714V16.2723V16.2723ZM2.39322 13.0047V18.446H2.89046C3.44452 18.446 3.82811 18.3039 4.05542 18.0197C4.28273 17.7214 4.39638 17.2242 4.41059 16.5138V15.0931C4.41059 14.326 4.29693 13.8003 4.08383 13.502C3.87073 13.2036 3.50135 13.0331 2.9899 13.0189H2.39322V13.0047ZM0.731018 19.8098V11.6267H2.89046C3.84231 11.6267 4.60948 11.925 5.17776 12.5359C5.74603 13.1468 6.04437 13.9708 6.04437 15.0363V16.3575C6.04437 17.4373 5.76024 18.2755 5.19196 18.8864C4.62369 19.4973 3.84231 19.7956 2.84784 19.7956H0.731018V19.8098ZM39.3026 9.01261H37.6546V0.829475H39.3026V9.01261ZM33.5914 6.76793L34.9695 0.829475H36.8164L34.458 9.01261H32.739L30.3807 0.829475H32.2134L33.5914 6.76793ZM29.5851 9.01261H27.9371V5.50352H25.4935V9.01261H23.8455V0.829475H25.4935V4.13967H27.9371V0.829475H29.5851V9.01261ZM22.6806 8.08917C22.368 8.43013 21.9702 8.70006 21.5014 8.87054C21.0468 9.04103 20.5353 9.12627 19.9813 9.12627C19.0436 9.12627 18.3049 8.84213 17.7934 8.25965C17.2678 7.67717 16.9978 6.82476 16.9836 5.71663V4.23912C16.9836 3.11678 17.2252 2.25016 17.7224 1.63926C18.2196 1.02837 18.93 0.730027 19.8818 0.730027C20.7769 0.730027 21.4446 0.94313 21.885 1.38354C22.3396 1.82395 22.5953 2.50588 22.6664 3.44353H21.061C21.0184 2.91788 20.9047 2.56271 20.7342 2.37802C20.5638 2.19333 20.2938 2.09388 19.9245 2.09388C19.484 2.09388 19.1573 2.25016 18.9584 2.57692C18.7595 2.90367 18.6458 3.41512 18.6458 4.13967V5.61718C18.6458 6.35593 18.7595 6.91 18.9726 7.25096C19.1999 7.59193 19.5693 7.76241 20.0807 7.76241C20.4075 7.76241 20.6774 7.69138 20.8763 7.56352L21.0184 7.46407V5.95814H19.8534V4.70794H22.6664V8.08917H22.6806ZM15.7903 9.01261H14.1423L11.7271 3.64243V9.01261H10.0791V0.829475H11.7271L14.1565 6.19966V0.829475H15.8045V9.01261H15.7903ZM8.67264 9.01261H7.02465V0.829475H8.67264V9.01261ZM4.19749 6.86738C4.19749 6.54062 4.11224 6.2849 3.94176 6.11442C3.77128 5.94394 3.45873 5.75925 3.01832 5.57456C2.19432 5.26201 1.61184 4.90684 1.24246 4.48063C0.887293 4.05443 0.702604 3.57139 0.702604 3.00312C0.702604 2.30699 0.94412 1.76713 1.42715 1.34092C1.92439 0.914716 2.53529 0.71582 3.28825 0.71582C3.78549 0.71582 4.24011 0.829475 4.6379 1.04258C5.03569 1.25568 5.33403 1.55402 5.54713 1.93761C5.76024 2.32119 5.87389 2.7616 5.87389 3.25884H4.21169C4.21169 2.87526 4.12645 2.59112 3.97018 2.39223C3.8139 2.19333 3.57238 2.09388 3.27404 2.09388C2.9899 2.09388 2.7626 2.17912 2.60632 2.34961C2.45005 2.52009 2.3648 2.7474 2.3648 3.03153C2.3648 3.25884 2.45004 3.45774 2.63473 3.64243C2.81942 3.82712 3.13197 4.01181 3.58659 4.2107C4.38217 4.49484 4.96465 4.85001 5.31983 5.27621C5.6892 5.70242 5.85969 6.22807 5.85969 6.88159C5.85969 7.59193 5.63238 8.146 5.17776 8.55799C4.72314 8.95579 4.11224 9.15468 3.33087 9.15468C2.80522 9.15468 2.32218 9.04103 1.88177 8.82792C1.44136 8.61482 1.1004 8.30227 0.858879 7.89027C0.617363 7.49248 0.489502 7.00945 0.489502 6.45538H2.1517C2.1517 6.92421 2.23694 7.26517 2.42163 7.47827C2.60632 7.69138 2.90466 7.80503 3.31666 7.80503C3.89914 7.77662 4.19749 7.47827 4.19749 6.86738Z" fill="#100E0E"/>
<path d="M70.245 25.0241C70.245 24.7542 70.1739 24.5553 70.0177 24.399C69.8756 24.2427 69.5915 24.1007 69.1795 23.9728C68.7675 23.8449 68.4691 23.6745 68.2844 23.504C68.0287 23.2767 67.9008 22.9925 67.9008 22.6232C67.9008 22.268 68.0287 21.9696 68.2702 21.7423C68.5117 21.515 68.8385 21.4014 69.2363 21.4014C69.6341 21.4014 69.9608 21.5292 70.2166 21.7992C70.4723 22.0691 70.6001 22.3958 70.6001 22.8078H70.2308C70.2308 22.4953 70.1455 22.2396 69.9608 22.0407C69.7904 21.8418 69.5488 21.7423 69.2363 21.7423C68.9379 21.7423 68.7106 21.8276 68.5259 21.9838C68.3555 22.1401 68.2702 22.3532 68.2702 22.6089C68.2702 22.8505 68.3555 23.0352 68.5117 23.1914C68.668 23.3477 68.9379 23.4756 69.2789 23.5892C69.6341 23.7029 69.904 23.8307 70.0745 23.9586C70.2592 24.0865 70.387 24.2285 70.4723 24.399C70.5575 24.5695 70.6001 24.7684 70.6001 24.9957C70.6001 25.3651 70.4723 25.6634 70.2308 25.8907C69.9893 26.118 69.6483 26.2317 69.2505 26.2317C68.9806 26.2317 68.7248 26.1749 68.4975 26.0612C68.2702 25.9476 68.0997 25.7913 67.9577 25.5782C67.8298 25.3651 67.773 25.1093 67.773 24.8252H68.1424C68.1424 25.152 68.2418 25.4219 68.4407 25.6066C68.6396 25.7913 68.9095 25.8907 69.2505 25.8907C69.5488 25.8907 69.7904 25.8055 69.9608 25.6492C70.1455 25.5071 70.245 25.294 70.245 25.0241ZM67.5457 21.8276H66.2102V26.1891H65.8409V21.8276H64.5054V21.4724H67.5457V21.8276ZM64.065 26.1749H63.6956L61.4794 22.1685V26.1749H61.11V21.4724H61.4794L63.7098 25.4929V21.4724H64.0792V26.1749H64.065ZM58.1834 24.5127H59.7319L58.9505 21.9838L58.1834 24.5127ZM59.8456 24.8678H58.0839L57.6861 26.1891H57.3025L58.8085 21.4866H59.1494L60.6554 26.1891H60.2718L59.8456 24.8678ZM57.4304 21.8276H56.095V26.1891H55.7256V21.8276H54.3901V21.4724H57.4304V21.8276ZM53.9497 26.1749H53.5804L51.3641 22.1685V26.1749H50.9947V21.4724H51.3641L53.5946 25.4929V21.4724H53.9639V26.1749H53.9497ZM50.1849 21.4724V24.811C50.1849 25.2656 50.0571 25.6208 49.8155 25.8623C49.574 26.118 49.2331 26.2317 48.7784 26.2317C48.3238 26.2317 47.9829 26.1038 47.7413 25.8623C47.4998 25.6208 47.3862 25.2514 47.3862 24.7826V21.4582H47.7556V24.7684C47.7556 25.5071 48.0965 25.8765 48.7926 25.8765C49.4746 25.8765 49.8155 25.5213 49.8155 24.7968V21.4582H50.1849V21.4724ZM46.3207 23.3193C46.3207 22.8078 46.2212 22.4243 46.0223 22.1543C45.8234 21.8986 45.5393 21.7707 45.1699 21.7707C44.8147 21.7707 44.5306 21.8986 44.3317 22.1543C44.1328 22.4101 44.0192 22.7794 44.0192 23.2909V24.3422C44.0192 24.8536 44.1186 25.2514 44.3317 25.5071C44.5306 25.7629 44.8147 25.8907 45.1841 25.8907C45.5535 25.8907 45.8376 25.7629 46.0365 25.5071C46.2354 25.2514 46.3349 24.8536 46.3349 24.3422V23.3193H46.3207ZM46.69 24.3422C46.69 24.9531 46.5622 25.4219 46.2922 25.7487C46.0223 26.0754 45.6529 26.2459 45.1699 26.2459C44.6869 26.2459 44.3175 26.0754 44.0476 25.7487C43.7776 25.4219 43.6356 24.9531 43.6356 24.3422V23.3193C43.6356 22.7084 43.7634 22.2396 44.0334 21.9128C44.3033 21.5718 44.6727 21.4156 45.1557 21.4156C45.6387 21.4156 46.0081 21.5861 46.278 21.9128C46.548 22.2538 46.6758 22.7226 46.6758 23.3335V24.3422H46.69ZM43.0815 24.7116C43.0531 25.2372 42.911 25.6208 42.6553 25.8765C42.3996 26.118 42.0586 26.2459 41.6182 26.2459C41.1636 26.2459 40.8084 26.0754 40.5385 25.7345C40.2685 25.3935 40.1407 24.9247 40.1407 24.328V23.3051C40.1407 22.7084 40.2685 22.2538 40.5385 21.9128C40.8084 21.5718 41.1778 21.4156 41.6466 21.4156C42.087 21.4156 42.428 21.5434 42.6695 21.7992C42.911 22.0549 43.0531 22.4385 43.0815 22.9641H42.7121C42.6837 22.5379 42.5701 22.2396 42.4138 22.0549C42.2433 21.8702 42.0018 21.785 41.6608 21.785C41.3056 21.785 41.0215 21.9128 40.8368 22.1827C40.6379 22.4527 40.5385 22.8363 40.5385 23.3335V24.3422C40.5385 24.8394 40.6379 25.2372 40.8226 25.5071C41.0073 25.7913 41.2914 25.9191 41.6324 25.9191C42.0018 25.9191 42.2575 25.8339 42.428 25.6492C42.5985 25.4645 42.6837 25.1662 42.7263 24.74H43.0815V24.7116ZM39.5724 24.7116C39.544 25.2372 39.4019 25.6208 39.1462 25.8765C38.8905 26.118 38.5495 26.2459 38.1091 26.2459C37.6545 26.2459 37.2993 26.0754 37.0294 25.7345C36.7595 25.3935 36.6316 24.9247 36.6316 24.328V23.3051C36.6316 22.7084 36.7595 22.2538 37.0294 21.9128C37.2993 21.5718 37.6687 21.4156 38.1375 21.4156C38.5779 21.4156 38.9189 21.5434 39.1604 21.7992C39.4019 22.0549 39.544 22.4385 39.5724 22.9641H39.203C39.1746 22.5379 39.061 22.2396 38.9047 22.0549C38.7342 21.8702 38.4927 21.785 38.1517 21.785C37.7966 21.785 37.5124 21.9128 37.3277 22.1827C37.1288 22.4527 37.0294 22.8363 37.0294 23.3335V24.3422C37.0294 24.8394 37.1288 25.2372 37.3135 25.5071C37.4982 25.7913 37.7823 25.9191 38.1233 25.9191C38.4927 25.9191 38.7484 25.8339 38.9189 25.6492C39.0894 25.4645 39.1746 25.1662 39.2172 24.74H39.5724V24.7116ZM33.8755 24.5127H35.424L34.6568 21.9981L33.8755 24.5127ZM35.5377 24.8678H33.776L33.3782 26.1891H32.9946L34.5006 21.4866H34.8415L36.3475 26.1891H35.9355L35.5377 24.8678ZM27.7097 21.8276V25.8339H28.42C28.8463 25.8339 29.1588 25.706 29.4003 25.4503C29.6276 25.1946 29.7555 24.811 29.7555 24.3422V23.3619C29.7555 22.8789 29.6418 22.5095 29.4145 22.2396C29.1872 21.9696 28.8605 21.8418 28.4343 21.8418H27.7097V21.8276ZM27.3403 26.1749V21.4724H28.4485C28.9599 21.4724 29.3577 21.6429 29.656 21.9696C29.9544 22.2964 30.1107 22.751 30.1107 23.3193V24.2996C30.1107 24.8962 29.9544 25.3509 29.656 25.6776C29.3577 26.0044 28.9315 26.1749 28.3916 26.1749H27.3403ZM26.4737 23.9302H24.641V25.8339H26.7436V26.1749H24.2859V21.4724H26.7436V21.8276H24.6552V23.5892H26.4879V23.9302H26.4737ZM21.2314 23.8734H22.2117C22.4958 23.8734 22.7089 23.7739 22.8794 23.5892C23.0499 23.4045 23.1351 23.1488 23.1351 22.8505C23.1351 22.5237 23.0499 22.268 22.8794 22.0833C22.7089 21.8986 22.4674 21.8134 22.1548 21.8134H21.2456V23.8734H21.2314ZM22.3395 24.2143H21.2456V26.1749H20.8762V21.4724H22.169C22.5952 21.4724 22.9362 21.6003 23.1635 21.8418C23.405 22.0833 23.5187 22.4243 23.5187 22.8647C23.5187 23.163 23.4477 23.4329 23.3056 23.6603C23.1635 23.8876 22.9646 24.0438 22.7089 24.1291L23.6892 26.1322V26.1749H23.2914L22.3395 24.2143ZM20.0096 23.9302H18.1769V25.8339H20.2795V26.1749H17.8075V21.4724H20.2653V21.8276H18.1769V23.5892H20.0096V23.9302ZM17.2819 21.8276H15.9464V26.1891H15.5771V21.8276H14.2416V21.4724H17.2819V21.8276ZM11.8123 23.8734H12.7925C13.0767 23.8734 13.2898 23.7739 13.4603 23.5892C13.6307 23.4045 13.716 23.1488 13.716 22.8505C13.716 22.5237 13.6307 22.268 13.4603 22.0833C13.2898 21.8986 13.0483 21.8134 12.7357 21.8134H11.8265V23.8734H11.8123ZM12.9062 24.2143H11.8123V26.1749H11.4429V21.4724H12.7357C13.1619 21.4724 13.5029 21.6003 13.7302 21.8418C13.9717 22.0833 14.0854 22.4243 14.0854 22.8647C14.0854 23.163 14.0143 23.4329 13.8722 23.6603C13.7302 23.8876 13.5313 24.0438 13.2756 24.1291L14.2558 26.1322V26.1749H13.858L12.9062 24.2143ZM8.53048 24.5127H10.079L9.29765 21.9838L8.53048 24.5127ZM10.1785 24.8678H8.41682L8.01903 26.1891H7.63545L9.14137 21.4866H9.48234L10.9883 26.1891H10.6047L10.1785 24.8678ZM7.09559 26.1749H6.72621V23.916H4.50994V26.1749H4.14056V21.4724H4.50994V23.5892H6.72621V21.4724H7.09559V26.1749ZM3.45864 24.7116C3.43022 25.2372 3.28816 25.6208 3.03243 25.8765C2.77671 26.118 2.43574 26.2459 1.99533 26.2459C1.54071 26.2459 1.18554 26.0754 0.915614 25.7345C0.645684 25.3935 0.517822 24.9247 0.517822 24.328V23.3051C0.517822 22.7084 0.645684 22.2538 0.915614 21.9128C1.18554 21.5718 1.55492 21.4156 2.02375 21.4156C2.46416 21.4156 2.80512 21.5434 3.04664 21.7992C3.28816 22.0549 3.43022 22.4385 3.45864 22.9641H3.08926C3.06085 22.5379 2.94719 22.2396 2.79092 22.0549C2.62043 21.8702 2.37892 21.785 2.03795 21.785C1.68278 21.785 1.39865 21.9128 1.21396 22.1827C1.01506 22.4527 0.915614 22.8363 0.915614 23.3335V24.3422C0.915614 24.8394 1.01506 25.2372 1.19975 25.5071C1.38444 25.7913 1.66858 25.9191 2.00954 25.9191C2.37892 25.9191 2.63464 25.8339 2.80512 25.6492C2.9756 25.4645 3.06085 25.1662 3.10347 24.74H3.45864V24.7116Z" fill="#100E0E"/>
<path d="M0.503598 28.4198H0.0773926V33.0228H0.503598V28.4198Z" fill="#100E0E"/>
<path d="M1.79638 28.4198H1.37018V33.0228H1.79638V28.4198Z" fill="#100E0E"/>
<path d="M3.08923 28.4198H2.66302V33.0228H3.08923V28.4198Z" fill="#100E0E"/>
<path d="M4.38214 28.4198H3.95593V33.0228H4.38214V28.4198Z" fill="#100E0E"/>
<path d="M5.68921 28.4198H5.263V33.0228H5.68921V28.4198Z" fill="#100E0E"/>
<path d="M6.98217 28.4198H6.55597V33.0228H6.98217V28.4198Z" fill="#100E0E"/>
<path d="M8.27444 28.4198H7.84824V33.0228H8.27444V28.4198Z" fill="#100E0E"/>
<path d="M9.5675 28.4198H9.1413V33.0228H9.5675V28.4198Z" fill="#100E0E"/>
<path d="M10.8603 28.4198H10.4341V33.0228H10.8603V28.4198Z" fill="#100E0E"/>
<path d="M12.1532 28.4198H11.727V33.0228H12.1532V28.4198Z" fill="#100E0E"/>
<path d="M13.4602 28.4198H13.034V33.0228H13.4602V28.4198Z" fill="#100E0E"/>
<path d="M14.753 28.4198H14.3268V33.0228H14.753V28.4198Z" fill="#100E0E"/>
<path d="M16.0458 28.4198H15.6196V33.0228H16.0458V28.4198Z" fill="#100E0E"/>
<path d="M17.3387 28.4198H16.9125V33.0228H17.3387V28.4198Z" fill="#100E0E"/>
<path d="M18.6317 28.4198H18.2055V33.0228H18.6317V28.4198Z" fill="#100E0E"/>
<path d="M19.9245 28.4198H19.4983V33.0228H19.9245V28.4198Z" fill="#100E0E"/>
<path d="M21.2311 28.4198H20.8049V33.0228H21.2311V28.4198Z" fill="#100E0E"/>
<path d="M22.524 28.4198H22.0978V33.0228H22.524V28.4198Z" fill="#100E0E"/>
<path d="M23.817 28.4198H23.3908V33.0228H23.817V28.4198Z" fill="#100E0E"/>
<path d="M25.1099 28.4198H24.6837V33.0228H25.1099V28.4198Z" fill="#100E0E"/>
<path d="M26.4028 28.4198H25.9766V33.0228H26.4028V28.4198Z" fill="#100E0E"/>
<path d="M27.6954 28.4198H27.2692V33.0228H27.6954V28.4198Z" fill="#100E0E"/>
<path d="M29.0024 28.4198H28.5762V33.0228H29.0024V28.4198Z" fill="#100E0E"/>
<path d="M30.2953 28.4198H29.8691V33.0228H30.2953V28.4198Z" fill="#100E0E"/>
<path d="M31.5882 28.4198H31.162V33.0228H31.5882V28.4198Z" fill="#100E0E"/>
<path d="M32.8812 28.4198H32.455V33.0228H32.8812V28.4198Z" fill="#100E0E"/>
<path d="M34.174 28.4198H33.7478V33.0228H34.174V28.4198Z" fill="#100E0E"/>
<path d="M35.4668 28.4198H35.0406V33.0228H35.4668V28.4198Z" fill="#100E0E"/>
<path d="M36.7737 28.4198H36.3475V33.0228H36.7737V28.4198Z" fill="#100E0E"/>
<path d="M38.0665 28.4198H37.6403V33.0228H38.0665V28.4198Z" fill="#100E0E"/>
<path d="M39.3593 28.4198H38.9331V33.0228H39.3593V28.4198Z" fill="#100E0E"/>
<path d="M40.652 28.4198H40.2258V33.0228H40.652V28.4198Z" fill="#100E0E"/>
<path d="M41.9448 28.4198H41.5186V33.0228H41.9448V28.4198Z" fill="#100E0E"/>
<path d="M43.2377 28.4198H42.8115V33.0228H43.2377V28.4198Z" fill="#100E0E"/>
<path d="M44.5449 28.4198H44.1187V33.0228H44.5449V28.4198Z" fill="#100E0E"/>
<path d="M45.8379 28.4198H45.4117V33.0228H45.8379V28.4198Z" fill="#100E0E"/>
<path d="M47.1303 28.4198H46.7041V33.0228H47.1303V28.4198Z" fill="#100E0E"/>
<path d="M48.4231 28.4198H47.9969V33.0228H48.4231V28.4198Z" fill="#100E0E"/>
<path d="M49.716 28.4198H49.2898V33.0228H49.716V28.4198Z" fill="#100E0E"/>
<path d="M51.0088 28.4198H50.5826V33.0228H51.0088V28.4198Z" fill="#100E0E"/>
<path d="M52.3016 28.4198H51.8754V33.0228H52.3016V28.4198Z" fill="#100E0E"/>
<path d="M53.6088 28.4198H53.1826V33.0228H53.6088V28.4198Z" fill="#100E0E"/>
<path d="M54.9015 28.4198H54.4753V33.0228H54.9015V28.4198Z" fill="#100E0E"/>
<path d="M56.1943 28.4198H55.7681V33.0228H56.1943V28.4198Z" fill="#100E0E"/>
<path d="M57.4873 28.4198H57.0611V33.0228H57.4873V28.4198Z" fill="#100E0E"/>
<path d="M58.7802 28.4198H58.354V33.0228H58.7802V28.4198Z" fill="#100E0E"/>
<path d="M60.0731 28.4198H59.6469V33.0228H60.0731V28.4198Z" fill="#100E0E"/>
<path d="M61.3797 28.4198H60.9535V33.0228H61.3797V28.4198Z" fill="#100E0E"/>
<path d="M62.6727 28.4198H62.2465V33.0228H62.6727V28.4198Z" fill="#100E0E"/>
<path d="M63.9655 28.4198H63.5392V33.0228H63.9655V28.4198Z" fill="#100E0E"/>
<path d="M65.2584 28.4198H64.8322V33.0228H65.2584V28.4198Z" fill="#100E0E"/>
<path d="M66.5511 28.4198H66.1249V33.0228H66.5511V28.4198Z" fill="#100E0E"/>
<path d="M67.8439 28.4198H67.4177V33.0228H67.8439V28.4198Z" fill="#100E0E"/>
<path d="M69.151 28.4198H68.7248V33.0228H69.151V28.4198Z" fill="#100E0E"/>
<path d="M70.4439 28.4198H70.0177V33.0228H70.4439V28.4198Z" fill="#100E0E"/>
</svg>
