<svg width="77" height="12" viewBox="0 0 77 12" fill="none" xmlns="http://www.w3.org/2000/svg">
<path d="M32.2628 0.5086C32.1406 0.506993 32.0207 0.540651 31.9182 0.605319C31.8158 0.669987 31.7353 0.762761 31.687 0.87191C31.6387 0.981058 31.6248 1.10168 31.647 1.21852C31.6692 1.33536 31.7265 1.44318 31.8117 1.52833C31.8969 1.61349 32.0062 1.67216 32.1257 1.69693C32.2451 1.7217 32.3695 1.71145 32.483 1.66748C32.5965 1.62352 32.694 1.54781 32.7633 1.44992C32.8325 1.35204 32.8704 1.23638 32.8721 1.11757C32.8741 1.03845 32.8598 0.959746 32.8301 0.886066C32.8003 0.812386 32.7558 0.745217 32.6991 0.688497C32.6423 0.631777 32.5745 0.586648 32.4996 0.555757C32.4247 0.524865 32.3442 0.508833 32.2628 0.5086V0.5086Z" fill="#100E0E"/>
<path d="M8.39344 8.0953C8.39344 6.09581 6.36412 5.47088 4.57089 4.92057C2.6663 4.33464 1.41851 3.86136 1.41851 2.67891C1.41851 1.52774 2.57176 0.753076 4.28926 0.753076C5.21969 0.743262 6.13712 0.966073 6.95361 1.40015L7.01845 1.43723L7.43719 0.892217L7.35502 0.844071C6.41673 0.355637 5.3678 0.103082 4.30362 0.109367C2.1753 0.109367 0.690432 1.16857 0.690432 2.68902C0.690432 4.26916 2.2446 4.89842 4.12197 5.50313L4.35658 5.57872C6.04685 6.12036 7.64358 6.63167 7.64358 8.10926C7.64358 9.61526 6.2384 10.5888 4.06356 10.5888C2.87803 10.5715 1.7198 10.2399 0.713695 9.62971L0.638462 9.58156L0.291992 10.1781L0.358811 10.22C1.47499 10.8971 2.76199 11.2607 4.07742 11.2705C6.61853 11.2734 8.39344 9.96673 8.39344 8.0953Z" fill="#100E0E"/>
<path d="M13.2791 11.0861L13.3534 11.0712L13.2826 10.4063L13.1871 10.4313C12.8857 10.508 12.5755 10.5471 12.264 10.5478C11.4498 10.5478 11.0538 10.1458 11.0538 9.31913V4.50022H13.4855V3.84303H11.0553V1.55322L10.3272 2.0626V3.844L9.0329 3.85122V4.51804H10.3272V9.31913C10.3272 10.5709 10.9796 11.205 12.2655 11.205C12.6068 11.2018 12.9468 11.1619 13.2791 11.0861V11.0861Z" fill="#100E0E"/>
<path d="M20.1562 9.85125V11.0689H20.867V3.84314H20.1389V9.03325C19.6108 9.611 18.5699 10.5479 17.3889 10.5479C16.1857 10.5479 15.6011 9.90132 15.6011 8.57057V3.84314H14.873V8.6216C14.873 10.2634 15.7773 11.2051 17.3538 11.2051C18.6471 11.2051 19.7048 10.3057 20.1562 9.85125Z" fill="#100E0E"/>
<path d="M26.3125 11.2053C27.2774 11.2014 28.2046 10.8398 28.905 10.1942V11.0685H29.6331V0.193848H28.905V4.65022C28.2028 4.03773 27.2913 3.7015 26.3481 3.70704C24.2658 3.70704 22.6953 5.32233 22.6953 7.46482C22.6948 9.59719 24.25 11.2053 26.3125 11.2053ZM23.4417 7.46482C23.4417 5.66802 24.6573 4.36423 26.3313 4.36423C26.8187 4.36636 27.3002 4.46903 27.7438 4.66547C28.1875 4.86191 28.5833 5.14766 28.905 5.50384V9.30736C28.5972 9.68656 28.2066 9.99452 27.7615 10.209C27.3164 10.4235 26.8279 10.5391 26.3313 10.5476C24.6558 10.5481 23.4402 9.25151 23.4402 7.46482H23.4417Z" fill="#100E0E"/>
<path d="M32.6417 3.84314H31.9136V11.0689H32.6417V3.84314Z" fill="#100E0E"/>
<path d="M38.1403 3.70746C36.068 3.70746 34.5049 5.32275 34.5049 7.46523C34.5049 9.59761 36.0526 11.2057 38.1052 11.2057C38.6014 11.1959 39.0906 11.09 39.5442 10.8941C39.9978 10.6982 40.4067 10.4163 40.7469 10.0648C41.0871 9.71327 41.3518 9.29929 41.5255 8.84705C41.6992 8.39482 41.7784 7.91343 41.7585 7.43105C41.7585 5.30927 40.2028 3.70746 38.1403 3.70746ZM41.0111 7.4479C41.0111 9.2447 39.7955 10.5485 38.121 10.5485C36.457 10.5485 35.2503 9.2447 35.2503 7.4479C35.2503 5.66169 36.4585 4.36657 38.121 4.36657C39.797 4.36465 41.0126 5.66169 41.0126 7.4479H41.0111Z" fill="#100E0E"/>
<path d="M47.4925 1.58093L54.2071 11.0315L54.2323 11.0666H54.8639V0.193848H54.1185V9.68097L47.4074 0.228994L47.3816 0.193848H46.7817V11.069H47.4925V1.58093Z" fill="#100E0E"/>
<path d="M60.3777 3.70746C58.3727 3.70746 56.917 5.28808 56.917 7.46523C56.917 9.73771 58.4469 11.2057 60.8148 11.2057C61.6083 11.1999 62.3917 11.0309 63.1134 10.7098L63.1718 10.7016V10.4994L63.1361 10.5167C63.1054 10.4248 63.0559 10.2707 63.0104 10.1315L62.9817 10.0415L62.8946 10.0815C62.2446 10.382 61.5354 10.542 60.8158 10.5504C58.8884 10.5504 57.7159 9.4238 57.6654 7.53216H63.5766V7.22884C63.5756 5.08924 62.3204 3.70746 60.3777 3.70746ZM57.6896 6.88989C57.8822 5.32949 58.8919 4.36465 60.3426 4.36465C61.7933 4.36465 62.7184 5.30638 62.8258 6.88989H57.6896Z" fill="#100E0E"/>
<path d="M67.7984 3.70746C67.0729 3.72781 66.3571 3.87458 65.6849 4.14077L65.6131 4.16966L65.823 4.80422L65.9081 4.76715C66.4953 4.5214 67.1248 4.38534 67.7637 4.36609C69.3441 4.36609 69.991 4.97851 69.991 6.47921V7.21102C69.3282 6.86375 68.5888 6.67759 67.836 6.66842C66.1279 6.66842 64.9355 7.61208 64.9355 8.96257C64.9355 10.3044 66.0739 11.2057 67.7662 11.2057C68.5839 11.199 69.3743 10.919 70.0049 10.4127V11.0704H70.7152V6.40988C70.7166 4.59141 69.7624 3.70746 67.7984 3.70746ZM69.9886 7.88603V9.62987C69.7151 9.93098 69.3775 10.1706 68.9993 10.3322C68.6211 10.4937 68.2113 10.5733 67.7984 10.5653C66.4491 10.5653 65.6438 9.96592 65.6438 8.96257C65.6438 7.80707 66.7525 7.29191 67.8513 7.29191C68.6074 7.28772 69.3489 7.49385 69.9886 7.88603V7.88603Z" fill="#100E0E"/>
<path d="M76.5427 4.50022V3.84303H74.1124V1.55322L73.3843 2.0626V3.844L72.09 3.85122V4.51804H73.3843V9.31913C73.3843 10.5709 74.0362 11.205 75.3226 11.205C75.6645 11.2009 76.0049 11.1604 76.3377 11.0842L76.4115 11.0687L76.3412 10.4063L76.2457 10.4313C75.9443 10.508 75.6341 10.5471 75.3226 10.5478C74.5084 10.5478 74.1124 10.1458 74.1124 9.31913V4.50022H76.5427Z" fill="#100E0E"/>
</svg>
