<svg width="23" height="23" viewBox="0 0 23 23" fill="none" xmlns="http://www.w3.org/2000/svg">
<path d="M11.7249 0.814819C9.52228 0.814819 7.36915 1.45015 5.53776 2.64047C3.70637 3.8308 2.27897 5.52265 1.43607 7.50208C0.593174 9.48151 0.372633 11.6596 0.802339 13.761C1.23204 15.8623 2.2927 17.7926 3.85017 19.3075C5.40764 20.8225 7.39198 21.8543 9.55225 22.2722C11.7125 22.6902 13.9517 22.4757 15.9866 21.6558C18.0216 20.8359 19.7609 19.4474 20.9846 17.666C22.2083 15.8845 22.8614 13.7901 22.8614 11.6476C22.8581 8.77555 21.6838 6.02204 19.596 3.99119C17.5082 1.96034 14.6775 0.818005 11.7249 0.814819V0.814819Z" fill="#100E0E"/>
<path d="M13.2925 18.5215V14.4266H12.803V17.6199L10.4519 14.4257L10.0322 14.418V18.5234H10.5217V15.2801L12.8619 18.519L13.2925 18.5215Z" fill="#100E0E"/>
<path d="M17.7548 11.3928H5.69174V11.8315H17.7548V11.3928Z" fill="#100E0E"/>
<path d="M10.2399 8.23624L9.9751 8.60928C10.462 9.00191 11.0781 9.21058 11.7104 9.19701C12.7196 9.19701 13.4245 8.63672 13.4245 7.83432C13.4289 7.63077 13.3702 7.43065 13.256 7.25998C13.1419 7.08931 12.9776 6.956 12.7845 6.8774C12.4596 6.73253 12.1214 6.61794 11.7743 6.53516L11.7218 6.5212C11.1051 6.35273 10.6685 6.20255 10.6685 5.80736C10.6685 5.42469 11.1199 5.12481 11.6966 5.12481C12.1147 5.1249 12.5187 5.27133 12.835 5.53733L13.1057 5.14743C12.7224 4.84197 12.2396 4.67949 11.7441 4.68919C10.8304 4.68919 10.1676 5.17054 10.1676 5.83384C10.1676 6.56067 11.0046 6.78739 11.6773 6.96933C12.2559 7.12625 12.9087 7.30339 12.9087 7.86416C12.9087 8.3999 12.436 8.74599 11.7045 8.74599C11.1713 8.74072 10.6554 8.56117 10.2399 8.23624V8.23624Z" fill="#100E0E"/>
</svg>
