<svg width="13" height="13" viewBox="0 0 13 13" fill="none" xmlns="http://www.w3.org/2000/svg">
<path d="M6.13317 11.4524C4.88721 11.4524 3.82814 11.0163 2.95597 10.1441C2.08379 9.27194 1.64771 8.21287 1.64771 6.96691C1.64771 5.72095 2.08379 4.66188 2.95597 3.78971C3.82814 2.91753 4.88721 2.48145 6.13317 2.48145C6.24946 2.48145 6.36376 2.4856 6.47606 2.4939C6.58836 2.50221 6.69834 2.51467 6.80599 2.53128C6.46543 2.77217 6.19331 3.08582 5.98964 3.47223C5.78596 3.85865 5.68429 4.27596 5.68463 4.72418C5.68463 5.47176 5.94628 6.1072 6.46958 6.6305C6.99289 7.15381 7.62833 7.41546 8.3759 7.41546C8.83276 7.41546 9.25223 7.31362 9.63433 7.10995C10.0164 6.90627 10.3279 6.63432 10.5688 6.29409C10.5854 6.40208 10.5979 6.51205 10.6062 6.62402C10.6145 6.73599 10.6186 6.85029 10.6186 6.96691C10.6186 8.21287 10.1826 9.27194 9.31038 10.1441C8.4382 11.0163 7.37913 11.4524 6.13317 11.4524Z" fill="black"/>
</svg>
