<svg width="20" height="21" viewBox="0 0 20 21" fill="none" xmlns="http://www.w3.org/2000/svg">
<path d="M6.5215 2.39746H13.2941C15.8741 2.39746 17.9704 4.49373 17.9704 7.07375V13.8463C17.9704 15.0865 17.4777 16.276 16.6007 17.1529C15.7237 18.0299 14.5343 18.5226 13.2941 18.5226H6.5215C3.94148 18.5226 1.84521 16.4263 1.84521 13.8463V7.07375C1.84521 5.83352 2.33789 4.64409 3.21487 3.76711C4.09184 2.89014 5.28128 2.39746 6.5215 2.39746ZM6.36025 4.00997C5.59046 4.00997 4.85219 4.31578 4.30786 4.8601C3.76353 5.40443 3.45773 6.1427 3.45773 6.9125V14.0076C3.45773 15.612 4.7558 16.9101 6.36025 16.9101H13.4553C14.2251 16.9101 14.9634 16.6043 15.5077 16.06C16.052 15.5156 16.3578 14.7774 16.3578 14.0076V6.9125C16.3578 5.30805 15.0598 4.00997 13.4553 4.00997H6.36025ZM14.1406 5.21936C14.4079 5.21936 14.6643 5.32554 14.8533 5.51454C15.0423 5.70355 15.1485 5.95989 15.1485 6.22718C15.1485 6.49447 15.0423 6.75082 14.8533 6.93982C14.6643 7.12882 14.4079 7.235 14.1406 7.235C13.8733 7.235 13.617 7.12882 13.428 6.93982C13.239 6.75082 13.1328 6.49447 13.1328 6.22718C13.1328 5.95989 13.239 5.70355 13.428 5.51454C13.617 5.32554 13.8733 5.21936 14.1406 5.21936ZM9.90778 6.42875C10.9769 6.42875 12.0023 6.85347 12.7583 7.60948C13.5143 8.36549 13.9391 9.39087 13.9391 10.46C13.9391 11.5292 13.5143 12.5546 12.7583 13.3106C12.0023 14.0666 10.9769 14.4913 9.90778 14.4913C8.83862 14.4913 7.81325 14.0666 7.05724 13.3106C6.30122 12.5546 5.8765 11.5292 5.8765 10.46C5.8765 9.39087 6.30122 8.36549 7.05724 7.60948C7.81325 6.85347 8.83862 6.42875 9.90778 6.42875ZM9.90778 8.04126C9.26629 8.04126 8.65106 8.29609 8.19745 8.7497C7.74385 9.20331 7.48901 9.81853 7.48901 10.46C7.48901 11.1015 7.74385 11.7168 8.19745 12.1704C8.65106 12.624 9.26629 12.8788 9.90778 12.8788C10.5493 12.8788 11.1645 12.624 11.6181 12.1704C12.0717 11.7168 12.3266 11.1015 12.3266 10.46C12.3266 9.81853 12.0717 9.20331 11.6181 8.7497C11.1645 8.29609 10.5493 8.04126 9.90778 8.04126Z" fill="#F3F3F3"/>
</svg>
