<svg width="20" height="21" viewBox="0 0 20 21" fill="none" xmlns="http://www.w3.org/2000/svg">
<path d="M15.4718 3.2041C15.8994 3.2041 16.3095 3.37398 16.6119 3.67637C16.9143 3.97876 17.0842 4.38889 17.0842 4.81654V16.1036C17.0842 16.5312 16.9143 16.9414 16.6119 17.2438C16.3095 17.5461 15.8994 17.716 15.4718 17.716H4.1847C3.75706 17.716 3.34693 17.5461 3.04454 17.2438C2.74215 16.9414 2.57227 16.5312 2.57227 16.1036V4.81654C2.57227 4.38889 2.74215 3.97876 3.04454 3.67637C3.34693 3.37398 3.75706 3.2041 4.1847 3.2041H15.4718ZM15.0686 15.7005V11.4275C15.0686 10.7305 14.7917 10.062 14.2988 9.56906C13.8059 9.07616 13.1374 8.79926 12.4404 8.79926C11.7551 8.79926 10.9569 9.21849 10.57 9.84734V8.95244H8.3206V15.7005H10.57V11.7258C10.57 11.105 11.0698 10.5971 11.6906 10.5971C11.9899 10.5971 12.277 10.716 12.4887 10.9277C12.7004 11.1394 12.8193 11.4265 12.8193 11.7258V15.7005H15.0686ZM5.70039 7.68668C6.05961 7.68668 6.40412 7.54398 6.65813 7.28997C6.91214 7.03596 7.05484 6.69145 7.05484 6.33223C7.05484 5.58245 6.45018 4.96972 5.70039 4.96972C5.33903 4.96972 4.99247 5.11327 4.73695 5.36879C4.48143 5.62431 4.33788 5.97087 4.33788 6.33223C4.33788 7.08201 4.95061 7.68668 5.70039 7.68668ZM6.82104 15.7005V8.95244H4.58781V15.7005H6.82104Z" fill="#F3F3F3"/>
</svg>
