<svg width="54" height="30" viewBox="0 0 54 30" fill="none" xmlns="http://www.w3.org/2000/svg">
<path fill-rule="evenodd" clip-rule="evenodd" d="M45.7578 8.16559C44.9421 8.16559 44.2624 7.50197 44.2624 6.70558C44.2624 5.90924 44.9421 5.24561 45.7578 5.24561C46.5735 5.24561 47.2532 5.90924 47.2532 6.70558C47.2532 7.50197 46.5735 8.16559 45.7578 8.16559Z" fill="#100E0E"/>
<path fill-rule="evenodd" clip-rule="evenodd" d="M22.0128 11.6617C20.744 11.6617 19.5658 13.9626 19.4298 16.8386C19.2939 18.9625 19.747 20.9094 20.5627 21.7943C20.8346 22.1041 21.1518 22.2368 21.4691 22.281H21.5144C22.7832 22.281 23.9614 19.9802 24.0974 17.1041C24.2333 14.9802 23.7801 13.0333 22.9192 12.1484C22.6473 11.8387 22.33 11.706 22.0128 11.6617C22.0582 11.6617 22.0128 11.6617 22.0128 11.6617ZM40.7283 28.1217L40.819 28.0332C42.7676 26.2633 44.2177 24.5376 45.5772 22.458C47.0273 19.8032 47.5258 17.3253 47.1633 14.8475C47.0726 14.4493 46.9367 14.4493 46.8913 14.4493C46.7101 14.4493 46.4382 14.6262 46.1663 14.8475C43.0395 17.9006 41.4081 21.0863 41.0002 24.8031V24.8916L39.0517 25.3341V25.2014C38.961 20.5112 39.2782 15.9095 40.0939 11.0865H36.4686L36.4233 14.2723L34.4748 14.228L34.3388 12.1484C34.1122 11.706 33.795 11.5289 33.4325 11.5289C33.2512 11.5289 33.0246 11.5732 32.7981 11.706C31.6652 12.3254 31.0761 13.7413 30.9401 16.4404C30.8042 18.6528 30.8494 20.2457 31.6198 21.0421C31.9824 21.3961 32.4355 21.5731 33.0246 21.5731C33.2512 21.5731 33.4778 21.5731 33.7044 21.5288C34.656 21.0863 35.3811 20.2014 35.9702 18.7412L36.0155 18.6528L37.0124 18.5643L36.9672 18.697C36.378 21.8385 34.8826 23.2987 32.1636 23.2987C31.8464 23.2987 31.5292 23.2987 31.1667 23.2545C28.6743 22.6793 27.8586 20.1129 28.7196 15.8209C29.1728 13.6528 30.0338 12.1484 31.3933 11.1307H25.0943C26.0006 12.3254 26.4538 13.9626 26.4538 15.9979C26.1819 20.2014 24.7318 22.5023 21.9675 23.2545C21.5597 23.343 21.1518 23.4315 20.6987 23.4315C20.1549 23.4315 19.5204 23.343 18.9313 23.166C17.8438 22.6793 17.164 21.7943 16.9827 20.6439C16.5749 17.9006 16.8015 16.6174 17.7078 14.0068C18.2516 12.4582 19.2486 11.6174 20.1549 11.0865H13.1762L13.2668 14.2723H11.9074V14.1395C11.998 13.3873 11.862 12.7679 11.4542 12.3254C11.0916 11.9272 10.5025 11.6617 9.82284 11.6617C9.27901 11.6617 8.78055 11.8387 8.50866 12.0599C7.87423 12.3696 7.5117 13.2104 7.55702 14.0511C7.64767 15.2015 8.46334 16.0864 9.82284 16.5289C12.0433 17.3696 13.584 18.7412 14.4904 20.7324C15.3514 23.5642 14.1731 25.9978 11.4089 26.927C10.9104 27.0155 10.4119 27.0598 9.95876 27.0598C9.50563 27.0598 9.00712 27.0155 8.55398 26.927C7.5117 26.75 6.56006 26.396 5.69906 25.9093L5.65374 25.8651V21.4846H7.01324V21.6174C6.83195 24.0067 7.46637 25.3341 8.91652 25.6881C9.18841 25.7323 9.4603 25.7766 9.73219 25.7766C10.8651 25.7766 11.8167 25.3784 12.4058 24.6704C12.859 24.0952 12.9949 23.343 12.7684 22.5465C12.4058 21.3076 11.3183 20.2899 9.23369 19.3607C7.14916 18.52 5.88031 17.1484 5.60841 15.4227C5.47249 13.5201 6.01627 12.1927 7.37573 11.2192H0.125183L2.11909 9.40507H40.4565C40.7283 6.83872 41.3175 4.05116 42.3597 0.86535L42.4051 0.776855H45.6225V1.88304H45.5319C43.8552 2.98922 42.8582 5.51133 42.541 9.40507H54.0059L52.0576 11.1307H42.3144L41.7706 19.051C43.2661 16.3077 44.9428 14.1395 46.7554 12.5909L46.8007 12.5466H49.5197V12.6351C50.5164 19.5819 48.2962 22.9005 45.7131 25.4669L41.7706 29.1394L40.7283 28.1217Z" fill="#100E0E"/>
<path fill-rule="evenodd" clip-rule="evenodd" d="M47.1188 0.688084C46.7563 0.688084 46.4843 0.953507 46.4843 1.30741C46.4843 1.6613 46.7563 1.92673 47.1188 1.92673C47.4813 1.92673 47.7532 1.6613 47.7532 1.30741C47.7532 0.953507 47.4813 0.688084 47.1188 0.688084ZM47.1188 2.0152C46.7109 2.0152 46.3937 1.70554 46.3937 1.30741C46.3937 0.90927 46.7109 0.599609 47.1188 0.599609C47.5266 0.599609 47.8438 0.90927 47.8438 1.30741C47.8892 1.70554 47.5266 2.0152 47.1188 2.0152Z" fill="#100E0E"/>
<path fill-rule="evenodd" clip-rule="evenodd" d="M46.9353 1.21865H47.0713C47.1619 1.21865 47.2072 1.21865 47.2072 1.21865C47.2072 1.21865 47.2525 1.21865 47.2525 1.17445V1.13026C47.2525 1.08607 47.2525 1.08607 47.2525 1.08607L47.2072 1.04188C47.2072 1.04188 47.1619 1.04188 47.0713 1.04188H46.9353V1.21865ZM46.7541 1.70476V0.865112H47.1166C47.2072 0.865112 47.2525 0.865112 47.2979 0.865112C47.3432 0.865112 47.3885 0.909304 47.3885 0.953496C47.4338 0.997688 47.4338 1.04188 47.4338 1.08607C47.4338 1.13026 47.4338 1.17445 47.3885 1.21865C47.3432 1.26284 47.2979 1.26284 47.2072 1.30703C47.2525 1.30703 47.2525 1.35122 47.2979 1.39541C47.3432 1.4396 47.3432 1.4838 47.3885 1.52799L47.4791 1.70476H47.2979L47.1619 1.52799C47.1166 1.4838 47.0713 1.4396 47.0713 1.39541L47.026 1.35122C47.026 1.35122 46.9807 1.35122 46.9353 1.35122H46.89V1.70476H46.7541Z" fill="#100E0E"/>
</svg>
