<svg width="100" height="46" viewBox="0 0 100 46" fill="none" xmlns="http://www.w3.org/2000/svg">
<path d="M59.1383 45.7041H61.025V38.4927C61.025 36.3543 62.5935 35.2396 64.3438 35.2396C66.2533 35.2396 67.1398 36.1723 67.1398 38.2652V45.7041H69.0265V38.4017C69.0265 34.9438 67.2989 33.6017 64.8439 33.6017C62.889 33.6017 61.5706 34.5799 61.025 35.6946V33.8064H59.1383V45.7041Z" fill="#100E0E"/>
<path d="M76.2246 45.9088C78.9069 45.9088 80.8846 44.6576 81.2937 42.269H79.407C79.157 43.6567 78.0886 44.3391 76.2473 44.3391C73.8151 44.3391 72.5194 42.8377 72.4284 40.1306H81.3847V39.5164C81.3847 35.2623 78.7933 33.6017 76.0427 33.6017C72.7694 33.6017 70.4735 36.104 70.4735 39.6984V39.8804C70.4735 43.5429 72.8603 45.9088 76.2246 45.9088ZM72.4966 38.6064C72.8149 36.4908 74.1106 35.1713 76.0427 35.1713C77.9977 35.1713 79.2706 36.1495 79.4525 38.6064H72.4966Z" fill="#100E0E"/>
<path d="M86.0047 45.9088C87.755 45.9088 88.8234 45.3173 89.7099 44.2026V45.7041H91.5966V37.8557C91.5966 34.5344 89.528 33.6017 87.2549 33.6017C84.959 33.6017 82.7995 34.6026 82.5495 37.3097H84.4362C84.618 35.8538 85.5273 35.1713 87.164 35.1713C88.9825 35.1713 89.7099 35.9675 89.7099 37.8557V38.7202H88.005C84.959 38.7202 82.0494 39.6529 82.0494 42.4055C82.0494 44.8396 83.7997 45.9088 86.0047 45.9088ZM86.1865 44.4074C84.5271 44.4074 83.9361 43.6339 83.9361 42.4055C83.9361 40.6538 85.6864 40.0623 88.0732 40.0623H89.7099V41.541C89.7099 43.3837 88.1869 44.4074 86.1865 44.4074Z" fill="#100E0E"/>
<path d="M93.9388 45.7041H95.8256V39.1751C95.8256 36.2405 97.3486 35.4898 99.7354 35.3761V33.6017C97.5986 33.6699 96.5757 34.6026 95.8256 35.9448V33.8064H93.9388V45.7041Z" fill="#100E0E"/>
<path d="M6.49177 45.9089C9.37325 45.9089 11.4543 43.9865 11.7059 41.4003H9.94497C9.73915 43.3456 8.20694 44.3298 6.51464 44.3298C4.20488 44.3298 2.60405 42.7735 2.60405 39.844V39.6609C2.60405 36.8459 4.27348 35.1065 6.44603 35.1065C8.09259 35.1065 9.46473 35.816 9.76202 37.7156H11.6373C11.2714 34.6717 8.93874 33.5274 6.44603 33.5274C3.24438 33.5274 0.637329 35.9991 0.637329 39.6609V39.844C0.637329 43.5516 3.15291 45.9089 6.49177 45.9089Z" fill="#100E0E"/>
<path d="M18.1849 44.3298C15.7608 44.3298 14.2743 42.5446 14.2743 39.8211V39.638C14.2743 36.8917 15.7837 35.1065 18.1849 35.1065C20.5633 35.1065 22.0955 36.8917 22.0955 39.6609V39.8211C22.0955 42.5217 20.5862 44.3298 18.1849 44.3298ZM18.1621 45.9089C21.5695 45.9089 24.0622 43.4143 24.0622 39.7982V39.6152C24.0622 36.022 21.5695 33.5274 18.1849 33.5274C14.8003 33.5274 12.3076 36.0449 12.3076 39.638V39.8211C12.3076 43.3228 14.7546 45.9089 18.1621 45.9089Z" fill="#100E0E"/>
<path d="M30.1343 45.9089C31.8723 45.9089 33.5417 44.8104 34.2278 43.6432V45.7029H36.1259V0.202637H34.2278V35.6558C33.5417 34.4886 32.3068 33.5274 30.3172 33.5274C27.0241 33.5274 24.7372 36.1135 24.7372 39.7754V39.9584C24.7372 43.6889 27.0012 45.9089 30.1343 45.9089ZM30.3401 44.3298C28.3276 44.3298 26.7039 42.8879 26.7039 39.8669V39.6838C26.7039 36.7772 28.1218 35.1065 30.5002 35.1065C32.8328 35.1065 34.2964 36.5484 34.2964 39.6152V39.7982C34.2964 42.865 32.5584 44.3298 30.3401 44.3298Z" fill="#100E0E"/>
<path d="M43.4886 45.9089C46.1872 45.9089 48.1768 44.6502 48.5884 42.2471H46.6903C46.4387 43.6432 45.3639 44.3298 43.5115 44.3298C41.0645 44.3298 39.761 42.8193 39.6695 40.0958H48.6799V39.4778C48.6799 35.1981 46.0728 33.5274 43.3057 33.5274C40.0126 33.5274 37.7028 36.0449 37.7028 39.6609V39.844C37.7028 43.5287 40.104 45.9089 43.4886 45.9089ZM39.7381 38.5624C40.0583 36.4339 41.3618 35.1065 43.3057 35.1065C45.2724 35.1065 46.5531 36.0906 46.736 38.5624H39.7381Z" fill="#100E0E"/>
<path d="M50.2661 45.7029H52.187V0.202637H50.2661V45.7029Z" fill="#100E0E"/>
<path d="M54.7452 45.7029H56.6433V33.7333H54.7452V45.7029ZM55.6599 31.2387C56.346 31.2387 56.9177 30.6666 56.9177 29.98C56.9177 29.2934 56.346 28.7212 55.6599 28.7212C54.9738 28.7212 54.4021 29.2934 54.4021 29.98C54.4021 30.6666 54.9738 31.2387 55.6599 31.2387Z" fill="#100E0E"/>
</svg>
